<svg xmlns="http://www.w3.org/2000/svg" xml:space="preserve" viewBox="0 0 600 600"><defs><clipPath clipPathUnits="userSpaceOnUse" id="a"><path d="M0 1400h1600V0H0Z"/></clipPath><clipPath clipPathUnits="userSpaceOnUse" id="b"><path d="M0 1400h1600V0H0Z"/></clipPath></defs><g style="display:inline"><path d="M1066.671 93.584s-54 114.416-18 211.416 86.14 27 82.07-50c0 0 50.93 224.54 168.93 199.77 118-24.77-54-307.602-113-361.186z" style="fill:#d30c7b;fill-opacity:1;fill-rule:nonzero;stroke:none" transform="matrix(.4416 0 0 -.4416 -56.976 604.664)"/><path style="fill:#221f1f;fill-opacity:1;fill-rule:nonzero;stroke:none" d="M0 0c-.831 0-1.606.521-1.892 1.352-24.143 70.318-29.553 180.914-29.605 182.022a2 2 0 0 0 1.904 2.092c1.091.026 2.04-.801 2.092-1.904.052-1.104 5.436-111.138 29.393-180.912A2 2 0 0 0 0 0" transform="matrix(.4416 0 0 -.4416 434.606 564.185)"/><path style="fill:#221f1f;fill-opacity:1;fill-rule:nonzero;stroke:none" d="M0 0c-.499 0-.998.186-1.386.558-12.244 11.765-25.368 34.531-25.92 35.495a2 2 0 0 0 3.469 1.99c.133-.23 13.394-23.235 25.223-34.601A2 2 0 0 0 0 0" transform="matrix(.4416 0 0 -.4416 423.708 509.298)"/><path style="fill:#221f1f;fill-opacity:1;fill-rule:nonzero;stroke:none" d="M0 0a1.999 1.999 0 0 0-1.709 3.035l23.365 38.606a1.997 1.997 0 0 0 2.746.675 1.999 1.999 0 0 0 .676-2.746L1.713.965A1.997 1.997 0 0 0 0 0" transform="matrix(.4416 0 0 -.4416 426.206 527.964)"/><path style="fill:#221f1f;fill-opacity:1;fill-rule:nonzero;stroke:none" d="M0 0c-.5 0-1 .186-1.388.56-10.496 10.115-32.936 32.322-33.162 32.544a2.002 2.002 0 0 0 2.815 2.844c.224-.223 22.646-22.412 33.123-32.508A1.999 1.999 0 0 0 0 0" transform="matrix(.4416 0 0 -.4416 430.805 551.13)"/><path style="fill:#221f1f;fill-opacity:1;fill-rule:nonzero;stroke:none" d="M0 0a1.999 1.999 0 0 0-1.913 2.586c.601 1.964 61.018 197.697 140.945 310.653a2.001 2.001 0 0 0 3.266-2.31C62.737 198.492 2.511 3.374 1.911 1.416A2.001 2.001 0 0 0 0 0" transform="matrix(.4416 0 0 -.4416 446.898 564.22)"/><path style="fill:#221f1f;fill-opacity:1;fill-rule:nonzero;stroke:none" d="M0 0c-.717 0-1.41.386-1.77 1.063C-9.169 15.028-18.644 48.6-19.044 50.022a2 2 0 1 0 3.852 1.082c.096-.343 9.757-34.581 16.958-48.167A2.003 2.003 0 0 0 0 0" transform="matrix(.4416 0 0 -.4416 492.73 453.663)"/><path style="fill:#221f1f;fill-opacity:1;fill-rule:nonzero;stroke:none" d="M0 0a2 2 0 0 0-.604 3.907c.324.103 32.653 10.389 51.371 17.778a2 2 0 1 0 1.468-3.721C33.39 10.524.932.198.606.095A1.995 1.995 0 0 0 0 0" transform="matrix(.4416 0 0 -.4416 485.17 468.13)"/><path style="fill:#221f1f;fill-opacity:1;fill-rule:nonzero;stroke:none" d="M0 0a2 2 0 0 0-1.804 1.135c-10.357 21.583-18.648 51.868-18.73 52.171a2 2 0 1 0 3.859 1.05c.082-.299 8.28-30.241 18.477-51.491A2 2 0 0 0 0 0" transform="matrix(.4416 0 0 -.4416 471.085 498.825)"/><path style="fill:#221f1f;fill-opacity:1;fill-rule:nonzero;stroke:none" d="M0 0a2.002 2.002 0 0 0-.741 3.859c.393.157 39.578 15.774 59.831 24.171a2 2 0 1 0 1.531-3.695C40.343 15.927 1.133.3.739.143A1.989 1.989 0 0 0 0 0" transform="matrix(.4416 0 0 -.4416 458.737 529.892)"/><path style="fill:#221f1f;fill-opacity:1;fill-rule:nonzero;stroke:none" d="M0 0h-352a2 2 0 0 0 0 4H0a2 2 0 0 0 0-4" transform="matrix(.4416 0 0 -.4416 530.655 564.22)"/><path style="fill:#fff;fill-opacity:1;fill-rule:nonzero;stroke:none" d="m0 0-7.786-83.057-37.127-1.477 5.092 90.732z" transform="matrix(.4416 0 0 -.4416 255.09 469.076)"/><path style="fill:#221f1f;fill-opacity:1;fill-rule:nonzero;stroke:none" d="m0 0-4.845-86.331 33.178 1.32 7.448 79.442zm-6.965-90.417a2.001 2.001 0 0 0-1.997 2.112L-3.87 2.428a1.999 1.999 0 0 0 2.305 1.864l39.82-6.198a2 2 0 0 0 1.684-2.163l-7.786-83.057a2 2 0 0 0-1.912-1.812l-37.126-1.477-.08-.002" transform="matrix(.4416 0 0 -.4416 238.332 467.361)"/><path d="M775.88 454.77C764.23 381.61 741 267 741 267l-83 6 13 206-163 198s-36 56-20 124 85 76 128 2c0 0 110.21-185.51 151.1-260.32 8.52-15.61 14.04-26.4 14.9-29.68 1.45-5.5-1.38-28.42-6.12-58.23" style="fill:#332a50;fill-opacity:1;fill-rule:nonzero;stroke:none" transform="matrix(.4416 0 0 -.4416 -56.976 604.664)"/><path style="fill:#fff;fill-opacity:1;fill-rule:nonzero;stroke:none" d="M0 0c-23.44 1.42-42 20.87-42 44.66 0 20.73 14.09 38.17 33.22 43.25C-.26 72.3 5.26 61.51 6.12 58.23 7.57 52.73 4.74 29.81 0 0" transform="matrix(.4416 0 0 -.4416 285.657 403.835)"/><path style="fill:#221f1f;fill-opacity:1;fill-rule:nonzero;stroke:none" d="M0 0a2 2 0 0 0-1.992 2.209l19.473 185.688-165.678 219.378a2 2 0 1 0 3.192 2.41L21.149 189.679c.305-.405.446-.909.393-1.414L1.987 1.791A2 2 0 0 0 0 0" transform="matrix(.4416 0 0 -.4416 246.899 475.483)"/><path style="fill:#221f1f;fill-opacity:1;fill-rule:nonzero;stroke:none" d="M0 0zm-17.298-13.763a2 2 0 0 0-.853 3.809C-10.66-6.429-1.995-1.864-.22-.23c.015 6.389-.002 61.808-.002 62.392a2 2 0 0 0 1.999 2.001h.001a2 2 0 0 0 2-2c.001-2.489.018-60.993 0-62.979-.011-1.218-.03-3.257-20.226-12.757a1.983 1.983 0 0 0-.85-.19" transform="matrix(.4416 0 0 -.4416 183.363 293.274)"/><path style="fill:#221f1f;fill-opacity:1;fill-rule:nonzero;stroke:none" d="M0 0c-.055 0-.11.002-.166.007l-69.333 5.666a2 2 0 0 0-1.83 2.156c.09 1.101 1.052 1.933 2.156 1.83L.161 3.993A2 2 0 0 0 0 0" transform="matrix(.4416 0 0 -.4416 267.752 477.187)"/><path d="M829.523 108.07V93.584h-179.03s-.58 7.559-1.137 20.272c-1.115 25.013-2.4 67.048.925 113.529l57.14 9.157s49.04-51.027 92.677-90.746a207.913 207.913 0 0 1 14.322-11.943c9.637-7.312 15.103-16.37 15.103-25.783" style="fill:#332a50;fill-opacity:1;fill-rule:nonzero;stroke:none" transform="matrix(.4416 0 0 -.4416 -56.976 604.664)"/><path style="fill:#221f1f;fill-opacity:1;fill-rule:nonzero;stroke:none" d="M0 0c-.524 0-1.047.205-1.439.611-38.766 40.193-56.208 73.552-56.38 73.884a1.999 1.999 0 0 0 .858 2.694 1.998 1.998 0 0 0 2.695-.858c.169-.327 17.379-33.206 55.705-72.942A1.999 1.999 0 0 0 0 0" transform="matrix(.4416 0 0 -.4416 272.005 540.464)"/><path style="fill:#fff;fill-opacity:1;fill-rule:nonzero;stroke:none" d="M0 0c0-9.773-7.116-17.695-15.895-17.695S-31.79-9.773-31.79 0s7.116 17.695 15.895 17.695S0 9.773 0 0" transform="matrix(.4416 0 0 -.4416 249.821 534.053)"/><path style="fill:#221f1f;fill-opacity:1;fill-rule:nonzero;stroke:none" d="M0 0c-7.662 0-13.895-7.04-13.895-15.694 0-8.655 6.233-15.696 13.895-15.696s13.895 7.041 13.895 15.696C13.895-7.04 7.662 0 0 0m0-35.39c-9.867 0-17.895 8.835-17.895 19.696C-17.895-4.835-9.867 4 0 4c9.867 0 17.895-8.835 17.895-19.694C17.895-26.555 9.867-35.39 0-35.39" transform="matrix(.4416 0 0 -.4416 242.802 527.122)"/><path style="fill:#fff;fill-opacity:1;fill-rule:nonzero;stroke:none" d="M0 0v-14.486h-179.029s-.58 7.559-1.138 20.272h94.512s6.044 42.102 56.23 31.94a207.913 207.913 0 0 1 14.322-11.943C-5.466 18.471 0 9.414 0 0" transform="matrix(.4416 0 0 -.4416 309.346 556.94)"/><path style="fill:#221f1f;fill-opacity:1;fill-rule:nonzero;stroke:none" d="M0 0h175.166v12.485c0 8.597-5.083 17.188-14.312 24.19a210.795 210.795 0 0 0-14.048 11.682c-15.587 3.059-28.294 1.235-37.768-5.427-13.107-9.214-15.525-24.789-15.547-24.946a2.004 2.004 0 0 0-1.98-1.713H-.909C-.546 8.408-.187 2.738 0 0m177.166-4H-1.863a2 2 0 0 0-1.994 1.847c-.006.076-.589 7.737-1.142 20.337A2 2 0 0 0-3 20.271h92.86c1.029 4.625 4.855 17.454 16.832 25.899 10.522 7.42 24.467 9.439 41.446 6.001.354-.071.682-.237.949-.482 4.672-4.252 9.444-8.232 14.185-11.827 10.249-7.776 15.894-17.499 15.894-27.377V-2a2 2 0 0 0-2-2" transform="matrix(.4416 0 0 -.4416 231.108 562.454)"/><path style="fill:#fff;fill-opacity:1;fill-rule:nonzero;stroke:none" d="m0 0-21.99-80.471-38.651 5.667 20.66 88.495z" transform="matrix(.4416 0 0 -.4416 115.687 473.594)"/><path style="fill:#221f1f;fill-opacity:1;fill-rule:nonzero;stroke:none" d="m0 0 34.747-5.095 21.027 76.951-36.112 12.368Zm36.21-9.33c-.096 0-.193.007-.291.021L-2.732-3.642A2 2 0 0 0-4.39-1.208l20.66 88.495a2 2 0 0 0 2.595 1.438l39.982-13.692a2.001 2.001 0 0 0 1.281-2.42l-21.99-80.47A2 2 0 0 0 36.21-9.33" transform="matrix(.4416 0 0 -.4416 89.986 505.893)"/><path d="M502.372 108.07V93.584H323.343s-.58 7.559-1.138 20.272c-1.115 25.013-2.399 67.048.925 113.529l57.141 9.157s49.039-51.027 92.676-90.746a207.913 207.913 0 0 1 14.322-11.943c9.637-7.312 15.103-16.37 15.103-25.783" style="fill:#332a50;fill-opacity:1;fill-rule:nonzero;stroke:none" transform="matrix(.4416 0 0 -.4416 -56.976 604.664)"/><path style="fill:#221f1f;fill-opacity:1;fill-rule:nonzero;stroke:none" d="M0 0c-.524 0-1.047.205-1.439.611-38.766 40.193-56.208 73.552-56.38 73.884a1.999 1.999 0 0 0 .858 2.694 1.998 1.998 0 0 0 2.695-.858c.169-.327 17.379-33.206 55.705-72.942A1.999 1.999 0 0 0 0 0" transform="matrix(.4416 0 0 -.4416 127.534 540.464)"/><path style="fill:#fff;fill-opacity:1;fill-rule:nonzero;stroke:none" d="M0 0c0-9.773-7.116-17.695-15.895-17.695S-31.79-9.773-31.79 0s7.116 17.695 15.895 17.695S0 9.773 0 0" transform="matrix(.4416 0 0 -.4416 105.35 534.053)"/><path style="fill:#221f1f;fill-opacity:1;fill-rule:nonzero;stroke:none" d="M0 0c-7.662 0-13.895-7.04-13.895-15.694 0-8.655 6.233-15.696 13.895-15.696s13.895 7.041 13.895 15.696C13.895-7.04 7.662 0 0 0m0-35.39c-9.867 0-17.895 8.835-17.895 19.696C-17.895-4.835-9.867 4 0 4c9.867 0 17.895-8.835 17.895-19.694C17.895-26.555 9.867-35.39 0-35.39" transform="matrix(.4416 0 0 -.4416 98.33 527.122)"/><path style="fill:#fff;fill-opacity:1;fill-rule:nonzero;stroke:none" d="M0 0v-14.486h-179.029s-.58 7.559-1.138 20.272h94.512s6.044 42.102 56.23 31.94a207.913 207.913 0 0 1 14.322-11.943C-5.466 18.471 0 9.414 0 0" transform="matrix(.4416 0 0 -.4416 164.874 556.94)"/><path style="fill:#221f1f;fill-opacity:1;fill-rule:nonzero;stroke:none" d="M0 0h175.167v12.485c0 8.597-5.083 17.188-14.313 24.19a210.886 210.886 0 0 0-14.047 11.682c-15.61 3.063-28.331 1.228-37.809-5.456-13.123-9.254-15.485-24.758-15.507-24.914a2 2 0 0 0-1.98-1.716H-.909C-.546 8.408-.187 2.738 0 0m177.167-4H-1.863a2 2 0 0 0-1.994 1.847c-.006.076-.589 7.737-1.142 20.337A2 2 0 0 0-3 20.271h92.86c1.029 4.625 4.855 17.454 16.832 25.899 10.523 7.42 24.468 9.439 41.446 6.001.354-.071.682-.238.95-.482 4.67-4.251 9.442-8.231 14.184-11.827 10.25-7.776 15.895-17.499 15.895-27.377V-2a2 2 0 0 0-2-2" transform="matrix(.4416 0 0 -.4416 86.636 562.454)"/><path d="M526.941 797.5V686s-25.794-207.624-29.794-226.291c-4-18.666-93.48-211.376-93.48-211.376l-82.667 30 68.666 191.334S369 689 369.666 745c.667 56 6 132.667 59.334 132 53.333-.667 89.216-22.333 97.941-79.5" style="fill:#332a50;fill-opacity:1;fill-rule:nonzero;stroke:none" transform="matrix(.4416 0 0 -.4416 -56.976 604.664)"/><path style="fill:#221f1f;fill-opacity:1;fill-rule:nonzero;stroke:none" d="M0 0a2 2 0 0 0-2 2v94.333a2 2 0 0 0 4 0V2a2 2 0 0 0-2-2" transform="matrix(.4416 0 0 -.4416 175.724 302.606)"/><path style="fill:#fff;fill-opacity:1;fill-rule:nonzero;stroke:none" d="M0 0c-6.071-23.102-24.632-38.245-41.458-33.824-16.826 4.422-25.544 26.734-19.473 49.836 6.071 23.102 24.632 38.246 41.458 33.824C-2.647 45.414 6.071 23.102 0 0" transform="matrix(.4416 0 0 -.4416 158.5 402.301)"/><path style="fill:#221f1f;fill-opacity:1;fill-rule:nonzero;stroke:none" d="M0 0a2 2 0 0 0-1.88 2.683l64.741 178.55L44.22 489.486c-.005.086-.005.172.001.257.083 1.214 2.131 29.935 11.194 48.733a2 2 0 0 0 3.603-1.738c-8.439-17.502-10.642-45.055-10.797-47.143l18.658-308.533a1.992 1.992 0 0 0-.116-.803L1.88 1.319A2.001 2.001 0 0 0 0 0" transform="matrix(.4416 0 0 -.4416 98.52 476.572)"/><path style="fill:#221f1f;fill-opacity:1;fill-rule:nonzero;stroke:none" d="M0 0a2.001 2.001 0 0 0-.656 3.89l9.974 3.461c6.208 2.153 10.941 7.477 12.355 13.893l6.134 27.839a2.001 2.001 0 0 0 3.906-.86l-6.134-27.84c-1.71-7.764-7.438-14.205-14.949-16.811L.656.111A2.013 2.013 0 0 0 0 0" transform="matrix(.4416 0 0 -.4416 119.33 267.86)"/><path style="fill:#221f1f;fill-opacity:1;fill-rule:nonzero;stroke:none" d="M0 0c-.221 0-.445.037-.665.115l-63.334 22.333a2 2 0 1 0 1.331 3.772L.665 3.887A2 2 0 0 0 0 0" transform="matrix(.4416 0 0 -.4416 121.138 484.548)"/><path style="fill:#fff;fill-opacity:1;fill-rule:nonzero;stroke:none" d="m0 0 8.217 41.881a24.442 24.442 0 0 0 11.59 16.359l59.484 34.99a5.928 5.928 0 0 0 6.735-9.717L55.333 58.667l8.253-12.924a28.622 28.622 0 0 0 .588-29.845L58 5.333l-30-21z" transform="matrix(.4416 0 0 -.4416 289.242 149.038)"/><path style="fill:#221f1f;fill-opacity:1;fill-rule:nonzero;stroke:none" d="m0 0 25.639-14.346L54.252 5.683l5.954 10.186c5.063 8.665 4.853 19.302-.547 27.76l-8.253 12.923a2.001 2.001 0 0 0 .427 2.632L82.526 84.03a3.939 3.939 0 0 1 .741 5.313 3.952 3.952 0 0 1-5.204 1.126L18.58 55.479A22.46 22.46 0 0 1 7.938 40.458Zm25.758-18.704c-.336 0-.672.084-.976.254l-28 15.667a2 2 0 0 0-.986 2.131l8.217 41.88a26.456 26.456 0 0 0 12.539 17.698l59.484 34.99c3.53 2.078 8.144 1.081 10.503-2.271 2.391-3.398 1.734-8.109-1.496-10.724L55.739 57.199l7.291-11.417c6.213-9.729 6.453-21.964.629-31.931L57.485 3.287a2.008 2.008 0 0 0-.58-.63l-30-21a1.998 1.998 0 0 0-1.147-.361" transform="matrix(.4416 0 0 -.4416 290.232 148.58)"/><path style="fill:#fff;fill-opacity:1;fill-rule:nonzero;stroke:none" d="m0 0-12.358-14.176a10.726 10.726 0 0 1 .772-14.895L7.943-47.268c4.248-3.958 10.875-3.817 14.951.319l12.182 12.361c4.087 4.147 4.118 10.798.071 14.984L15.795.408C11.427 4.925 4.129 4.736 0 0" transform="matrix(.4416 0 0 -.4416 310.276 124.57)"/><path style="fill:#221f1f;fill-opacity:1;fill-rule:nonzero;stroke:none" d="M0 0h.01Zm8.095 1.678a8.628 8.628 0 0 1-6.587-2.992L-10.851-15.49a8.69 8.69 0 0 1 .629-12.117L9.307-45.804a8.678 8.678 0 0 1 12.162.259l12.182 12.361a8.674 8.674 0 0 1 .058 12.19L14.357-.982a8.628 8.628 0 0 1-6.262 2.66m7.163-53.85c-3.103 0-6.211 1.142-8.678 3.441l-19.528 18.197a12.674 12.674 0 0 0-.918 17.673L-1.508 1.314a12.754 12.754 0 0 0 9.264 4.359c3.543.078 7.006-1.32 9.476-3.875l19.352-20.012c4.843-5.007 4.807-12.816-.083-17.778L24.318-48.353c-2.504-2.541-5.779-3.819-9.06-3.819" transform="matrix(.4416 0 0 -.4416 310.276 124.57)"/><path style="fill:#fff;fill-opacity:1;fill-rule:nonzero;stroke:none" d="m0 0 5.697 47.402a8.75 8.75 0 0 0 4.666 6.726l12.406 6.416a8.747 8.747 0 0 0 9.706-1.123l15.828-13.546c2.961-2.534 2.893-7.134-.142-9.579a6.226 6.226 0 0 0-6.766-.681L30.5 41.25l3.654-26.947a6.23 6.23 0 0 0-1.213-4.604L15.5-13.25Z" transform="matrix(.4416 0 0 -.4416 289.574 147.382)"/><path style="fill:#221f1f;fill-opacity:1;fill-rule:nonzero;stroke:none" d="m0 0 13.076-11.178 16.159 21.262a4.2 4.2 0 0 1 .825 3.125l-3.655 26.948a2 2 0 0 0 2.901 2.045L40.2 36.566a4.23 4.23 0 0 1 4.593.463 4.214 4.214 0 0 1 1.574 3.228 4.213 4.213 0 0 1-1.477 3.274L29.061 57.076a6.72 6.72 0 0 1-7.487.867L9.169 51.526a6.736 6.736 0 0 1-3.599-5.188Zm13.387-16.075c-.474 0-.936.169-1.3.48l-15.5 13.25a2.001 2.001 0 0 0-.686 1.759l5.697 47.402a10.737 10.737 0 0 0 5.733 8.263l12.405 6.417a10.708 10.708 0 0 0 11.926-1.381L47.491 46.57a8.205 8.205 0 0 0 2.876-6.372 8.201 8.201 0 0 0-3.064-6.283 8.233 8.233 0 0 0-8.941-.901l-7.476 3.867 3.136-23.134a8.17 8.17 0 0 0-1.602-6.083L14.979-15.285a2.002 2.002 0 0 0-1.592-.79" transform="matrix(.4416 0 0 -.4416 290.507 147.018)"/><path d="M827.67 1017s-26.66-81.56-56.56-127.02c-13.18-20.04-27-33.06-39.44-28.98-9.95 3.26-21.54 11.67-33.72 23.25-37.6 35.75-80.82 101.66-98.95 139.42-24 50 36 119.33 70.67 85.33 27.59-27.07 72-128.67 72-128.67l38 62.67z" style="fill:#d30c7b;fill-opacity:1;fill-rule:nonzero;stroke:none" transform="matrix(.4416 0 0 -.4416 -56.976 604.664)"/><path style="fill:#fff;fill-opacity:1;fill-rule:nonzero;stroke:none" d="m0 0 32.667-17" transform="matrix(.4416 0 0 -.4416 287.623 151.871)"/><path style="fill:#221f1f;fill-opacity:1;fill-rule:nonzero;stroke:none" d="M0 0c-.311 0-.626.073-.921.227l-32.667 17a2 2 0 0 0 1.847 3.547l32.666-17A2 2 0 0 0 0 0" transform="matrix(.4416 0 0 -.4416 302.048 160.262)"/><path style="fill:#fff;fill-opacity:1;fill-rule:nonzero;stroke:none" d="m0 0-1.67-51.83" transform="matrix(.4416 0 0 -.4416 270.55 176.161)"/><path style="fill:#221f1f;fill-opacity:1;fill-rule:nonzero;stroke:none" d="m0 0-.065.001A2 2 0 0 0-2 2.064l1.67 51.831a1.988 1.988 0 0 0 2.063 1.934 2 2 0 0 0 1.935-2.063l-1.67-51.83A2 2 0 0 0 0 0" transform="matrix(.4416 0 0 -.4416 269.812 199.933)"/><path style="fill:#fff;fill-opacity:1;fill-rule:nonzero;stroke:none" d="M0 0c-13.18-20.04-27-33.06-39.44-28.98-9.95 3.26-21.54 11.67-33.72 23.25 7.7 13.3 22.08 22.25 38.55 22.25C-20.63 16.52-8.16 10.08 0 0" transform="matrix(.4416 0 0 -.4416 283.55 211.644)"/><path d="M665 1027c-15.33-44-52.67-138-26.67-234.67 0 0-38-25.33-104.66-25.33-39.14 0-83.71 4.48-118.52 14.52-2.16 18.78-7.05 49.48-15.91 49.48-8.65 0-9.54-24.56-9.22-40.4-12.62 5.74-22.55 12.62-28.52 20.73 0 0-.67 193.05 82 326.05 0 0 89.5 22.95 151.5 17.62 0 0 38.67-13.33 74.67-46 0 0 10.66-38-4.67-82" style="fill:#d30c7b;fill-opacity:1;fill-rule:nonzero;stroke:none" transform="matrix(.4416 0 0 -.4416 -56.976 604.664)"/><path style="fill:#221f1f;fill-opacity:1;fill-rule:nonzero;stroke:none" d="M0 0a2 2 0 0 0-1.926 2.544C3.739 22.607 9.89 39.959 14.833 53.902c1.106 3.122 2.148 6.061 3.104 8.806 10.592 30.397 8.603 57.92 6.475 71.621a2 2 0 0 0 1.669 2.283 1.994 1.994 0 0 0 2.283-1.669c2.185-14.069 4.228-42.333-6.649-73.552-.959-2.75-2.003-5.696-3.112-8.826C13.68 38.678 7.553 21.395 1.924 1.457A2.001 2.001 0 0 0 0 0" transform="matrix(.4416 0 0 -.4416 227.936 178.537)"/><path style="fill:#221f1f;fill-opacity:1;fill-rule:nonzero;stroke:none" d="M0 0c-11.109 0-21.583.431-30.994 1.066-39.492 2.668-69.235 9.416-69.53 9.484a2 2 0 0 0 .894 3.899c1.171-.268 118.07-26.483 199.442 5.412a2 2 0 1 0 1.459-3.723C69.226 3.576 31.993 0 0 0" transform="matrix(.4416 0 0 -.4416 174.446 257.341)"/><path style="fill:#fff;fill-opacity:1;fill-rule:nonzero;stroke:none" d="M0 0c.47-23.381 21.598-43.802 36.026-50.53 8.353 13.145 25.467 31.033 25.467 31.033 3.49-14.115 1.819-30.228.178-37.223 19.427 8.754 24.722 22.47 24.722 22.47 6.903 25.969-6.78 53.193-25.258 59.979C20.294 40.729 0 0 0 0" transform="matrix(.4416 0 0 -.4416 178.798 97.9)"/><path style="fill:#221f1f;fill-opacity:1;fill-rule:nonzero;stroke:none" d="M0 0a1.998 1.998 0 0 0 1.941-1.52c3.101-12.54 2.234-26.143.956-34.147 14.88 7.887 19.656 18.491 20.102 19.549 6.684 25.391-7.162 51.266-24.047 57.467-16.181 5.943-30.927 3.646-43.825-6.828-8.615-6.995-13.533-15.515-14.607-17.494.722-21.346 19.676-40.396 33.305-47.481C-17.56-17.508-2.123-1.326-1.445-.617A2 2 0 0 0 0 0m.178-41.223a2.002 2.002 0 0 0-1.948 2.457c1.565 6.668 2.843 20.251.613 32.599-5.091-5.52-16.405-18.155-22.622-27.939a2 2 0 0 0-2.533-.74c-15.145 7.062-36.692 27.958-37.181 52.303-.006.323.066.643.21.932.21.423 21.582 42.15 63.614 26.715 18.565-6.818 34.015-34.109 26.502-62.371a2.064 2.064 0 0 0-.067-.206C26.538-18.064 20.945-32.058 1-41.046a1.998 1.998 0 0 0-.822-.177" transform="matrix(.4416 0 0 -.4416 205.954 105.626)"/><path style="fill:#fff;fill-opacity:1;fill-rule:nonzero;stroke:none" d="m0 0-9.405-25.034L-25.5-67.856C-15.295-83.607-1.863-90.29 15.586-85.681l6.039 20.476 9.145 31.014z" transform="matrix(.4416 0 0 -.4416 204.31 60.32)"/><path style="fill:#221f1f;fill-opacity:1;fill-rule:nonzero;stroke:none" d="M0 0c9.821-14.671 22.027-20.051 37.26-16.414l14.546 49.323-27.822 30.913Zm28.482-21.501c-12.838 0-23.699 6.749-32.391 20.164A2 2 0 0 0-4.103.454l25.5 67.856a2.002 2.002 0 0 0 3.359.634l30.771-34.191a2 2 0 0 0 .431-1.903L40.774-18.641a2 2 0 0 0-1.408-1.367c-3.77-.996-7.401-1.493-10.884-1.493" transform="matrix(.4416 0 0 -.4416 194.035 90.176)"/><g clip-path="url(#a)" transform="matrix(.4416 0 0 -.4416 -56.976 604.664)"><path style="fill:#fff;fill-opacity:1;fill-rule:nonzero;stroke:none" d="M0 0a303.462 303.462 0 0 1-6.074 13.434c-7.489 15.572-16.838 31.783-27.871 47.918-11.033 16.135-22.748 30.727-34.543 43.356a304.579 304.579 0 0 1-10.315 10.533l-44.481 65.048-41.186-28.163c-5.596-3.826-9.195-10.089-10.915-18.262-6.204-29.364 11.9-83.283 48.155-136.302 36.255-53.019 79.934-89.45 109.548-94.32 8.24-1.362 15.382-.28 20.977 3.546l41.186 28.163z" transform="translate(318.405 713.181)"/><path style="fill:#221f1f;fill-opacity:1;fill-rule:nonzero;stroke:none" d="m0 0-39.535-27.035c-5.041-3.447-8.435-9.174-10.087-17.023-6.255-29.604 12.974-83.76 47.849-134.761 34.875-51 78.366-88.565 108.222-93.475 7.913-1.309 14.482-.225 19.523 3.224l39.535 27.035-43.352 63.397c-.075.11-.139.227-.191.35a303.16 303.16 0 0 1-6.034 13.344c-7.657 15.922-16.983 31.955-27.72 47.657-10.739 15.704-22.297 30.212-34.354 43.12a301.659 301.659 0 0 1-10.247 10.464 1.968 1.968 0 0 0-.257.305zm112.663-276.833c-2.185 0-4.474.197-6.865.592-30.863 5.076-75.421 43.319-110.873 95.164-35.452 51.846-54.927 107.242-48.46 137.845 1.87 8.89 5.822 15.45 11.742 19.499L-.607 4.431a2.003 2.003 0 0 0 2.78-.522l44.368-64.884A307.772 307.772 0 0 0 56.78-71.437c12.194-13.055 23.879-27.721 34.732-43.592 10.851-15.868 20.279-32.078 28.023-48.18a307.242 307.242 0 0 0 6.035-13.336l44.368-64.884a2 2 0 0 0-.522-2.78l-41.186-28.164c-4.341-2.969-9.559-4.46-15.567-4.46" transform="translate(194.6 890.69)"/><path style="fill:#fff;fill-opacity:1;fill-rule:nonzero;stroke:none" d="M0 0c-5.595-3.826-12.737-4.908-20.977-3.546-29.614 4.87-73.294 41.302-109.548 94.32-36.255 53.019-54.36 106.938-48.155 136.302 1.72 8.173 5.319 14.436 10.915 18.262 5.595 3.826 12.737 4.908 20.977 3.546.47-.078.939-.156 1.426-.257 20.429-3.981 47.211-22.455 73.579-50.707 11.795-12.629 23.51-27.221 34.543-43.356 11.033-16.135 20.382-32.346 27.871-47.918 16.763-34.821 24.263-66.48 20.561-86.962a34.46 34.46 0 0 0-.278-1.422C9.194 10.089 5.595 3.826 0 0" transform="translate(362.886 648.132)"/><path style="fill:#221f1f;fill-opacity:1;fill-rule:nonzero;stroke:none" d="M0 0c-5.202 0-9.669-1.257-13.33-3.761-5.041-3.447-8.434-9.174-10.086-17.023-6.256-29.604 12.973-83.76 47.848-134.761 34.875-51.001 78.366-88.565 108.222-93.476 7.914-1.309 14.483-.222 19.524 3.225 5.04 3.445 8.434 9.173 10.086 17.023.096.458.187.886.262 1.337 3.626 20.069-3.807 51.319-20.39 85.766-7.657 15.922-16.984 31.956-27.72 47.657-10.738 15.702-22.296 30.209-34.354 43.12C53.976-22.943 27.551-4.679 7.562-.784c-.485.101-.929.174-1.372.247C4.025-.179 1.96 0 0 0m138.866-253.56c-2.184 0-4.472.198-6.863.592-30.863 5.076-75.42 43.32-110.873 95.165-35.452 51.845-54.927 107.241-48.46 137.845 1.871 8.89 5.822 15.45 11.743 19.499 5.92 4.048 13.466 5.35 22.432 3.869a37.7 37.7 0 0 0 1.508-.273c20.772-4.048 47.985-22.747 74.632-51.3 12.196-13.057 23.882-27.724 34.732-43.592 10.851-15.867 20.279-32.078 28.023-48.181 16.941-35.189 24.495-67.331 20.727-88.183-.08-.481-.181-.964-.282-1.446-1.878-8.925-5.829-15.486-11.749-19.534-4.342-2.968-9.561-4.461-15.57-4.461" transform="translate(209.58 895.58)"/><path style="fill:#fff;fill-opacity:1;fill-rule:nonzero;stroke:none" d="M0 0a258.773 258.773 0 0 1-5.193 11.486c-6.403 13.315-14.397 27.175-23.83 40.971-9.434 13.795-19.45 26.272-29.535 37.07a260.13 260.13 0 0 1-8.82 9.005l-38.032 55.618-35.215-24.08c-4.784-3.272-7.861-8.627-9.332-15.614-5.305-25.107 10.175-71.209 41.173-116.541 30.999-45.331 68.345-76.481 93.666-80.645 7.045-1.164 13.151-.239 17.935 3.032l35.215 24.081z" transform="translate(358.074 752.568)"/><path style="fill:#221f1f;fill-opacity:1;fill-rule:nonzero;stroke:none" d="m0 0-33.563-22.952c-4.247-2.903-7.108-7.74-8.504-14.375-5.334-25.239 11.089-71.454 40.866-114.999s66.886-75.615 92.34-79.8c6.691-1.107 12.236-.195 16.482 2.709l33.564 22.952-36.904 53.966c-.075.11-.139.228-.191.35a258.769 258.769 0 0 1-5.153 11.398c-6.54 13.598-14.507 27.294-23.679 40.709-9.172 13.413-19.046 25.805-29.346 36.833a256.611 256.611 0 0 1-8.752 8.937 2.025 2.025 0 0 0-.257.305zm96.405-236.583a36.36 36.36 0 0 0-5.917.509c-26.462 4.353-64.636 37.1-94.99 81.49-30.355 44.39-47.024 91.844-41.479 118.083 1.615 7.676 5.034 13.346 10.16 16.851L-.607 4.431a2 2 0 0 0 2.78-.522l37.919-55.453a261.754 261.754 0 0 0 8.744-8.935C59.273-71.654 69.274-84.206 78.56-97.785c9.286-13.58 17.355-27.453 23.982-41.233a262.36 262.36 0 0 0 5.154-11.388l37.919-55.453a1.996 1.996 0 0 0-.522-2.78l-35.215-24.08c-3.761-2.573-8.276-3.864-13.473-3.864" transform="translate(252.142 903.938)"/><path style="fill:#fff;fill-opacity:1;fill-rule:nonzero;stroke:none" d="M0 0c-4.784-3.271-10.89-4.196-17.936-3.032-25.32 4.164-62.667 35.313-93.665 80.645-30.999 45.332-46.478 91.434-41.173 116.54 1.471 6.988 4.548 12.343 9.332 15.614 4.784 3.272 10.89 4.197 17.936 3.032.402-.066.803-.133 1.219-.22 17.468-3.403 40.366-19.198 62.911-43.355 10.085-10.797 20.101-23.274 29.535-37.07 9.434-13.795 17.427-27.656 23.831-40.97C6.322 61.411 12.734 34.343 9.569 16.83c-.07-.419-.153-.817-.237-1.216C7.861 8.626 4.784 3.271 0 0" transform="translate(396.106 696.95)"/><path style="fill:#221f1f;fill-opacity:1;fill-rule:nonzero;stroke:none" d="M0 0h.01zm-131.08 211.281c-4.389 0-8.152-1.058-11.233-3.164-4.246-2.904-7.107-7.741-8.504-14.376-5.333-25.24 11.09-71.454 40.866-114.999 29.778-43.545 66.886-75.615 92.34-79.801 6.692-1.106 12.237-.194 16.482 2.71V1.65c4.246 2.905 7.107 7.741 8.504 14.376.078.371.156.743.221 1.133C10.687 34.262 4.34 60.917-9.813 90.316c-6.54 13.599-14.507 27.296-23.679 40.709-9.173 13.414-19.046 25.807-29.345 36.834-22.264 23.854-44.8 39.438-61.832 42.757-.414.087-.789.148-1.164.21a32.262 32.262 0 0 1-5.247.455M-12.345-5.516c-1.884 0-3.857.17-5.917.51-26.462 4.353-64.636 37.101-94.99 81.49-30.354 44.39-47.023 91.843-41.479 118.083 1.616 7.676 5.034 13.346 10.16 16.851 5.126 3.506 11.651 4.635 19.391 3.354.429-.07.858-.143 1.303-.235 17.814-3.471 41.138-19.492 63.963-43.948 10.436-11.174 20.437-23.725 29.724-37.306 9.286-13.58 17.355-27.452 23.982-41.233C8.302 61.909 14.77 34.362 11.537 16.475c-.07-.421-.159-.847-.248-1.273C9.673 7.524 6.254 1.854 1.129-1.65v-.001c-3.762-2.573-8.277-3.865-13.474-3.865" transform="translate(396.106 696.95)"/><path style="fill:#fff;fill-opacity:1;fill-rule:nonzero;stroke:none" d="m0 0 211.109 181.946c2.675 1.83 4.396 4.824 5.218 8.731.047.223.094.446.133.68 1.77 9.793-1.816 24.93-9.83 41.578-3.581 7.446-8.051 15.196-13.326 22.911-5.275 7.714-10.876 14.691-16.516 20.729-12.607 13.508-25.411 22.34-35.179 24.243a15.15 15.15 0 0 1-.682.123c-3.94.652-7.354.134-10.029-1.695l-246.136-130.724a15.292 15.292 0 0 1-2.966-1.575c-3.857-2.638-6.338-6.956-7.524-12.59-4.278-20.244 8.204-57.417 33.198-93.969C-67.535 23.837-37.422-1.28-17.006-4.637c5.681-.939 10.605-.193 14.462 2.445A15.26 15.26 0 0 1 0 0" transform="translate(384.759 719.457)"/><path style="fill:#221f1f;fill-opacity:1;fill-rule:nonzero;stroke:none" d="M0 0c-2.275 0-4.214-.54-5.787-1.615a1.758 1.758 0 0 0-.191-.115l-246.135-130.725a1.821 1.821 0 0 0-.196-.09 13.36 13.36 0 0 1-2.579-1.37c-3.339-2.282-5.591-6.101-6.696-11.351-4.28-20.255 8.938-57.398 32.892-92.427 23.953-35.029 53.771-60.822 74.198-64.181 5.294-.875 9.669-.16 13.008 2.122.79.541 1.534 1.182 2.211 1.907.049.053.101.102.156.15L71.99-115.749c.056.048.115.094.177.136 2.18 1.49 3.657 4.011 4.39 7.492.045.213.084.401.117.598 1.698 9.395-1.824 24.104-9.66 40.38-3.639 7.566-8.071 15.186-13.174 22.649-5.105 7.465-10.598 14.36-16.327 20.493C25.188-10.794 12.759-2.176 3.413-.355c-.232.048-.429.08-.625.113C1.81-.081.879 0 0 0m-150.309-306.238c-1.54 0-3.153.139-4.836.417-21.435 3.526-52.318 29.997-76.849 65.87-24.531 35.874-37.995 74.257-33.505 95.511 1.325 6.291 4.135 10.943 8.353 13.827a17.292 17.292 0 0 0 3.25 1.74L-7.948 1.752C-4.903 3.793-1.072 4.45 3.44 3.704c.252-.041.505-.084.767-.139 10.126-1.973 23.342-11.027 36.23-24.836 5.866-6.28 11.486-13.333 16.705-20.965 5.217-7.63 9.751-15.426 13.477-23.173 8.192-17.019 11.836-32.619 9.996-42.8-.037-.223-.087-.462-.136-.7-.95-4.512-2.952-7.843-5.958-9.94l-210.95-181.808a17.315 17.315 0 0 0-2.799-2.396c-3.099-2.12-6.813-3.185-11.081-3.185" transform="translate(522.572 1018.667)"/><path style="fill:#fff;fill-opacity:1;fill-rule:nonzero;stroke:none" d="M0 0c-4.107-2.808-9.349-3.597-15.388-2.605-21.73 3.581-53.776 30.307-80.376 69.207-26.601 38.901-39.882 78.459-35.335 100.008 1.265 5.988 3.902 10.586 8.009 13.395 4.107 2.808 9.349 3.597 15.388 2.605 16.062-2.644 37.761-17.943 58.729-41.453 7.4-8.29 14.71-17.609 21.648-27.755 6.938-10.146 12.97-20.338 18.011-30.241C4.988 55.093 11.373 29.322 8.01 13.395 6.744 7.407 4.107 2.808 0 0" transform="translate(660.943 899.89)"/><path style="fill:#221f1f;fill-opacity:1;fill-rule:nonzero;stroke:none" d="M0 0c-3.714 0-6.894-.891-9.489-2.666-3.577-2.446-5.993-6.536-7.182-12.157-4.556-21.593 9.522-61.163 35.029-98.465 25.508-37.302 57.276-64.775 79.051-68.363 5.669-.93 10.357-.164 13.934 2.282 3.577 2.447 5.993 6.537 7.182 12.158 3.252 15.4-3.159 40.987-17.15 68.444-5.117 10.054-11.132 20.154-17.879 30.021-6.751 9.871-13.981 19.141-21.489 27.551C41.495-18.196 19.977-2.94 4.445-.384A27.425 27.425 0 0 1 0 0m101.872-186.037c-1.628 0-3.333.146-5.112.439-22.785 3.754-55.619 31.906-81.703 70.052C-11.028-77.4-25.352-36.591-20.584-13.997c1.408 6.663 4.381 11.586 8.837 14.633C-7.29 3.683-1.623 4.667 5.094 3.563 21.744.823 43.576-14.52 64.992-38.532c7.621-8.537 14.958-17.943 21.805-27.956 6.844-10.009 12.948-20.258 18.143-30.463 14.606-28.667 20.984-54.577 17.498-71.087-1.409-6.663-4.382-11.586-8.837-14.632-3.276-2.241-7.207-3.367-11.729-3.367" transform="translate(548.472 1080.91)"/><path style="fill:#fff;fill-opacity:1;fill-rule:nonzero;stroke:none" d="M0 0c-2.56-1.75-5.826-2.245-9.596-1.622C-23.142.606-43.122 17.271-59.707 41.523c-16.584 24.252-24.865 48.917-22.027 62.349.787 3.738 2.433 6.603 4.993 8.354 2.559 1.75 5.826 2.245 9.595 1.622.215-.036.43-.072.652-.118 9.346-1.821 21.596-10.271 33.658-23.195 5.395-5.777 10.754-12.452 15.801-19.832 5.047-7.381 9.324-14.796 12.749-21.92C3.382 32.855 6.813 18.373 5.119 9.004c-.037-.224-.082-.437-.126-.65C4.206 4.615 2.559 1.75 0 0" transform="translate(637.77 933.78)"/><path style="fill:#221f1f;fill-opacity:1;fill-rule:nonzero;stroke:none" d="M0 0c-2.16 0-3.999-.512-5.489-1.53-2.067-1.414-3.468-3.808-4.164-7.115-2.805-13.272 5.925-37.708 21.721-60.808 15.797-23.101 35.402-40.1 48.785-42.3 3.336-.554 6.075-.114 8.142 1.299 2.068 1.413 3.468 3.807 4.164 7.114.039.186.079.371.111.566 1.622 8.976-1.745 23.028-9.234 38.585-3.477 7.231-7.716 14.518-12.598 21.658-4.881 7.137-10.134 13.73-15.612 19.595C24.046-10.313 12.172-2.077 3.248-.338c-.221.046-.409.076-.597.108C1.72-.077.836 0 0 0m63.526-115.986c-1.061 0-2.169.095-3.324.286-14.616 2.403-34.806 19.67-51.435 43.989-16.63 24.318-25.396 49.397-22.334 63.892.916 4.348 2.874 7.575 5.82 9.59 2.946 2.016 6.664 2.671 11.051 1.945.243-.04.484-.081.734-.133 9.709-1.892 22.37-10.564 34.712-23.789 5.615-6.011 10.995-12.763 15.99-20.067 4.995-7.307 9.336-14.769 12.901-22.182 7.845-16.298 11.334-31.243 9.57-41.002a16.53 16.53 0 0 0-.138-.708c-.915-4.348-2.873-7.576-5.82-9.591-2.171-1.485-4.76-2.23-7.727-2.23" transform="translate(567.645 1045.884)"/><path style="fill:#fff;fill-opacity:1;fill-rule:nonzero;stroke:none" d="m0 0-32.439-22.182 22.023-32.207 13.019 8.902L17.97-34.978z" transform="translate(585.707 1104.644)"/><path style="fill:#221f1f;fill-opacity:1;fill-rule:nonzero;stroke:none" d="m0 0 19.766-28.905 25.279 17.286-16.128 31.392zm19.244-33.685a1.995 1.995 0 0 0-1.651.871L-4.431-.607a2.001 2.001 0 0 0 .522 2.78L28.53 24.355a2 2 0 0 0 2.908-.737L49.409-11.36a2 2 0 0 0-.65-2.565L20.373-33.336a2 2 0 0 0-1.129-.349" transform="translate(556.047 1081.94)"/><path style="fill:#fff;fill-opacity:1;fill-rule:nonzero;stroke:none" d="m0 0-32.401-22.157C-44.463-9.233-56.714-.783-66.059 1.038l32.396 22.153C-24.31 21.359-12.058 12.918 0 0" transform="translate(637.335 1046.47)"/><path style="fill:#221f1f;fill-opacity:1;fill-rule:nonzero;stroke:none" d="M0 0c8.681-3.112 19.053-10.646 29.277-21.345L58.332-1.477C47.445 9.812 36.583 17.278 28.155 19.252Zm28.997-25.96a2 2 0 0 0-1.463.635C15.754-12.703 3.88-4.466-5.043-2.728A2 2 0 0 0-5.79.886l32.396 22.153c.443.303.99.414 1.513.312 9.75-1.91 22.412-10.581 34.741-23.789a2.001 2.001 0 0 0-.333-3.016L30.125-25.611a1.991 1.991 0 0 0-1.128-.349" transform="translate(575.937 1048.274)"/><path style="fill:#fff;fill-opacity:1;fill-rule:nonzero;stroke:none" d="m0 0 .005.004-17.97 34.978c15.901-2.651 37.309-17.665 58.057-40.761l-6.429-17.412C21.605-10.273 9.353-1.832 0 0" transform="translate(603.672 1069.662)"/><path style="fill:#221f1f;fill-opacity:1;fill-rule:nonzero;stroke:none" d="M0 0c9.012-2.133 20.334-9.768 31.542-21.245l4.899 13.271C18.151 12.18-.876 26.135-15.583 30.329Zm32.308-26.944a2 2 0 0 0-1.462.635C19.078-13.702 7.201-5.467-1.74-3.715a1.999 1.999 0 0 0-1.462 1.194L-21.1 32.315a2 2 0 0 0 2.108 2.887c16.465-2.745 38.048-17.833 59.217-41.397a2 2 0 0 0 .388-2.029l-6.429-17.413a1.998 1.998 0 0 0-1.876-1.307" transform="translate(605.027 1071.415)"/><path style="fill:#fff;fill-opacity:1;fill-rule:nonzero;stroke:none" d="m0 0-32.4-22.156-18.562.323L-18.559.325z" transform="translate(597.715 1019.378)"/><path style="fill:#221f1f;fill-opacity:1;fill-rule:nonzero;stroke:none" d="m0 0 11.651-.203 26.696 18.255-11.65.204zm12.253-4.213h-.034l-18.562.323A2 2 0 0 0-7.437-.24l32.403 22.158c.342.234.748.381 1.164.349l18.558-.326a1.999 1.999 0 0 0 1.094-3.65l-32.4-22.155a1.994 1.994 0 0 0-1.129-.349" transform="translate(553.062 999.436)"/><path style="fill:#fff;fill-opacity:1;fill-rule:nonzero;stroke:none" d="m0 0-32.439-22.182-22.024 32.206 13.019 8.903 15.368 10.508z" transform="translate(701.367 935.505)"/><path style="fill:#221f1f;fill-opacity:1;fill-rule:nonzero;stroke:none" d="m0 0 19.766-28.905L48.683-9.131 25.28 17.287Zm19.246-33.685c-.639 0-1.266.305-1.653.872L-4.431-.607a2.002 2.002 0 0 0 .522 2.78l28.387 19.411a2 2 0 0 0 2.626-.325L53.18-8.176a2.001 2.001 0 0 0-.368-2.977L20.373-33.335a1.988 1.988 0 0 0-1.127-.35" transform="translate(649.684 945.007)"/><path style="fill:#fff;fill-opacity:1;fill-rule:nonzero;stroke:none" d="m0 0-32.401-22.157c7.667-15.928 11.098-30.409 9.405-39.779L9.4-39.783C11.086-30.403 7.664-15.923 0 0" transform="translate(665.885 1004.719)"/><path style="fill:#221f1f;fill-opacity:1;fill-rule:nonzero;stroke:none" d="M0 0c6.26-13.41 9.519-25.808 9.269-35.026l28.155 19.252c1.218 8.57-1.799 21.401-8.37 35.641zm6.866-41.093a2.001 2.001 0 0 0-1.969 2.356c1.618 8.947-1.75 23-9.238 38.556a1.999 1.999 0 0 0 .673 2.518l32.401 22.157a2.002 2.002 0 0 0 2.932-.784C39.501 7.429 42.988-7.516 41.23-17.294a2 2 0 0 0-.839-1.297L7.995-40.744a2.003 2.003 0 0 0-1.129-.349" transform="translate(636.023 981.876)"/><path style="fill:#fff;fill-opacity:1;fill-rule:nonzero;stroke:none" d="m0 0 .005.004 26.077-29.436c3.298 15.78-2.927 41.176-16.923 68.89l-18.559.325C-1.736 23.86 1.686 9.38 0 0" transform="translate(675.285 964.936)"/><path style="fill:#221f1f;fill-opacity:1;fill-rule:nonzero;stroke:none" d="m0 0 22.611-25.523c1.427 15.225-4.676 38.019-16.821 62.375l-14.145.247C-1.726 22.492 1.282 9.172 0 0m23.957-32.06c-.564 0-1.112.24-1.497.674L-3.534-2.042a1.99 1.99 0 0 0-.559 1.768c1.612 8.967-1.754 23.023-9.234 38.562a2 2 0 0 0 .119 1.946 2.046 2.046 0 0 0 1.719.92l18.558-.324a1.999 1.999 0 0 0 1.75-1.099c14.28-28.273 20.511-53.861 17.096-70.2a2.001 2.001 0 0 0-1.958-1.591" transform="translate(677.41 965.564)"/><path style="fill:#fff;fill-opacity:1;fill-rule:nonzero;stroke:none" d="m0 0-32.4-22.155-6.433-17.415L-6.43-17.412Z" transform="translate(626.265 977.626)"/><path style="fill:#221f1f;fill-opacity:1;fill-rule:nonzero;stroke:none" d="m0 0-4.038-10.931L22.66 7.325l4.036 10.93zm-8.088-18.123a1.998 1.998 0 0 0-1.876 2.693l6.433 17.414c.143.389.405.724.747.958l32.4 22.156a2.001 2.001 0 0 0 3.005-2.344l-6.43-17.413a2.003 2.003 0 0 0-.747-.958L-6.959-17.774a2.003 2.003 0 0 0-1.129-.349" transform="translate(595.521 954.18)"/><path style="fill:#fff;fill-opacity:1;fill-rule:nonzero;stroke:none" d="m0 0-38.121-26.068c-18.901-12.924-61.775 16.897-95.764 66.603-33.99 49.706-46.227 100.477-27.326 113.402l38.121 26.068c-4.107-2.809-6.744-7.407-8.009-13.395-.007-.036-.02-.077-.023-.118l.048.08 32.364 22.131 16.923-68.889-32.402-22.157c5.129-10.16 11.294-20.627 18.425-31.055 7.13-10.427 14.648-19.969 22.255-28.434l32.401 22.156 58.058-40.76-32.364-22.131s-.029-.004-.092-.016c.04-.012.082-.015.118-.022C-9.349-3.597-4.107-2.808 0 0" transform="translate(660.943 899.89)"/><path style="fill:#221f1f;fill-opacity:1;fill-rule:nonzero;stroke:none" d="M0 0h.01zm-116.202 174.271-28.373-19.402c-8.285-5.666-10.237-20.533-5.356-40.789 5.105-21.188 16.897-45.989 33.203-69.834 16.306-23.845 35.139-43.83 53.032-56.274 17.105-11.897 31.667-15.472 39.952-9.806L4.629-2.433a31.849 31.849 0 0 0-4.835.437 2.58 2.58 0 0 0-.371.081 2 2 0 0 0-.202 3.757l29.724 20.325-54.561 38.307-31.258-21.375a2 2 0 0 0-2.616.314c-7.863 8.75-15.406 18.386-22.419 28.643-7.014 10.257-13.258 20.782-18.558 31.282a1.999 1.999 0 0 0 .656 2.552l31.257 21.375-15.904 64.74-29.725-20.326a1.998 1.998 0 0 0-3.425 1.559c.007.095.036.271.058.364a31.723 31.723 0 0 0 1.348 4.669m82.941-202.78c-22.471 0-57.451 27.623-86.769 70.497-35.144 51.394-46.917 102.428-26.803 116.182l38.106 26.058.015.01a2 2 0 1 0 2.257-3.301l-.011-.009c-2.341-1.604-4.184-3.913-5.51-6.895l27.643 18.903a2.002 2.002 0 0 0 3.072-1.174l16.923-68.889a2.002 2.002 0 0 0-.814-2.128l-30.95-21.164c5.047-9.826 10.928-19.664 17.495-29.267 6.566-9.603 13.601-18.652 20.927-26.921l30.95 21.165c.688.47 1.596.465 2.278-.015l58.058-40.76a2 2 0 0 0-.021-3.288L5.937 1.589c3.255.154 6.081 1.034 8.429 2.637l.011.007c.912.625 2.158.39 2.78-.522a1.998 1.998 0 0 0-.522-2.779l-38.121-26.068c-3.334-2.281-7.31-3.373-11.775-3.373" transform="translate(645.437 897.307)"/><path style="fill:#fff;fill-opacity:1;fill-rule:nonzero;stroke:none" d="m0 0-26.076 29.435c-3.298-15.779 2.927-41.175 16.922-68.889l18.559-.325C1.741-23.856-1.686-9.38 0 0" transform="translate(588.31 1059.157)"/><path style="fill:#221f1f;fill-opacity:1;fill-rule:nonzero;stroke:none" d="m0 0 14.145-.248C7.511 14.368 4.502 27.69 5.786 36.856l-22.607 25.519C-18.248 47.15-12.145 24.356 0 0m17.314-4.304-.035.001-18.559.325A2.002 2.002 0 0 0-3.03-2.88c-14.279 28.275-20.51 53.862-17.095 70.2a1.998 1.998 0 0 0 3.455.917L9.406 38.802c.406-.459.58-1.077.471-1.68-1.61-8.96 1.757-23.014 9.239-38.559a1.998 1.998 0 0 0-1.802-2.867" transform="translate(580.4 1021.682)"/><path style="fill:#fff;fill-opacity:1;fill-rule:nonzero;stroke:none" d="m0 0-6.43-17.412c20.749-23.096 42.157-38.11 58.058-40.761L33.657-23.195C24.305-21.363 12.058-12.918 0 0" transform="translate(626.265 977.626)"/><path style="fill:#221f1f;fill-opacity:1;fill-rule:nonzero;stroke:none" d="M0 0c18.291-20.153 37.317-34.109 52.024-38.303L36.444-7.979C27.436-5.85 16.114 1.787 4.9 13.271Zm55.763-43.203c-.11 0-.22.009-.33.027C38.969-40.431 17.385-25.342-3.783-1.779A1.997 1.997 0 0 0-4.171.25l6.429 17.413a2.001 2.001 0 0 0 3.338.672C17.367 5.724 29.242-2.512 38.176-4.262a2 2 0 0 0 1.394-1.049l17.971-34.978a1.998 1.998 0 0 0-1.778-2.914" transform="translate(622.131 960.656)"/></g><path style="fill:#fff;fill-opacity:1;fill-rule:nonzero;stroke:none" d="M0 0h36.426a4.29 4.29 0 0 0 1.729-.364l24.047-10.609a4.283 4.283 0 0 0-2.005-8.191L39.067-17.8a3.194 3.194 0 0 1-1.062-6.265l37.097-10.314a6.266 6.266 0 0 0-2.808-12.2l-22.896 4.198 16.239-9.314a5.134 5.134 0 0 0 1.898-7.009l-9.967-17.371a5.136 5.136 0 0 0-5.744-2.414L12.663-66.093A27.304 27.304 0 0 0 2.36-60.102l-31.269 28.948z" transform="matrix(.4416 0 0 -.4416 132.322 219.584)"/><path style="fill:#221f1f;fill-opacity:1;fill-rule:nonzero;stroke:none" d="M0 0a3.147 3.147 0 0 1 3.462 1.485l9.968 17.371a3.139 3.139 0 0 1-1.159 4.279l-16.239 9.314a2 2 0 0 0 1.356 3.702l22.896-4.198a4.257 4.257 0 0 1 4.767 2.709 4.22 4.22 0 0 1-.198 3.425 4.22 4.22 0 0 1-2.658 2.172l-37.096 10.314a5.17 5.17 0 0 0-3.382 2.955 5.168 5.168 0 0 0 .186 4.486 5.19 5.19 0 0 0 4.922 2.746l21.13-1.364a2.28 2.28 0 0 1 2.272 1.445 2.278 2.278 0 0 1-1.204 2.921L-15.023 74.37a2.266 2.266 0 0 1-.922.194h-35.554l-26.953-29.046 29.8-27.588a25.456 25.456 0 0 1 9.547-5.552zm.734-4.088a7.087 7.087 0 0 0-1.885.257L-40.312 8.565a29.46 29.46 0 0 0-11.057 6.43l-31.27 28.947a2.003 2.003 0 0 0-.107 2.829l28.909 31.154a2 2 0 0 0 1.466.639h36.426c.879 0 1.733-.179 2.536-.534l24.047-10.609a6.268 6.268 0 0 0 3.314-8.038 6.266 6.266 0 0 0-6.255-3.979l-21.13 1.365a1.21 1.21 0 0 1-1.132-.632 1.175 1.175 0 0 1-.042-1.031c.084-.196.297-.546.777-.68l37.097-10.314a8.286 8.286 0 0 0 5.149-4.208 8.287 8.287 0 0 0 .384-6.636 8.248 8.248 0 0 0-9.238-5.249L8.146 30.112l6.115-3.508c3.412-1.957 4.596-6.326 2.638-9.739L6.932-.506A7.158 7.158 0 0 0 .734-4.088" transform="matrix(.4416 0 0 -.4416 155.45 253.396)"/><path d="M501 1069c-19.43-33.41-126.5-124.58-126.5-124.58l58.967-70.757L399.24 831s-62.26 36.92-99.68 70.14c-11.14 9.88-20.07 19.44-24.51 27.6-.2 1.16-.42 2.38-.18 3.57 1.95 9.78 7.76 22.43 16.05 36.61 32.54 55.67 103.28 134.88 128.89 156.3 42.54 35.59 105.59-14.24 81.19-56.22" style="fill:#d30c7b;fill-opacity:1;fill-rule:nonzero;stroke:none" transform="matrix(.4416 0 0 -.4416 -56.976 604.664)"/><path style="fill:#221f1f;fill-opacity:1;fill-rule:nonzero;stroke:none" d="M0 0a1.999 1.999 0 0 0-1.313 3.509C21.895 23.685 98.849 91.632 114.711 118.908c6.45 11.096 6.86 23.733 1.156 35.583-7.311 15.189-23.275 26.667-40.668 29.242a2 2 0 1 0 .586 3.957c18.668-2.764 35.816-15.114 43.686-31.464 6.298-13.082 5.836-27.049-1.302-39.328C102.439 89.849 31.207 26.48 1.311.491A1.992 1.992 0 0 0 0 0" transform="matrix(.4416 0 0 -.4416 112.848 184.655)"/><path style="fill:#fff;fill-opacity:1;fill-rule:nonzero;stroke:none" d="m0 0-39.833-2.087" transform="matrix(.4416 0 0 -.4416 108.405 187.603)"/><path style="fill:#221f1f;fill-opacity:1;fill-rule:nonzero;stroke:none" d="M0 0a2 2 0 0 0-.103 3.997l39.834 2.086a2.006 2.006 0 0 0 2.102-1.892 2 2 0 0 0-1.893-2.102L.106.003A1.85 1.85 0 0 0 0 0" transform="matrix(.4416 0 0 -.4416 90.814 189.408)"/><path style="fill:#fff;fill-opacity:1;fill-rule:nonzero;stroke:none" d="M0 0c0-14.2-8.19-26.48-20.11-32.39-11.14 9.88-20.07 19.44-24.51 27.6-.2 1.16-.42 2.38-.18 3.57 1.95 9.78 7.76 22.43 16.05 36.61C-12.33 31.97 0 17.43 0 0" transform="matrix(.4416 0 0 -.4416 84.192 192.412)"/><path style="fill:#fff;fill-opacity:1;fill-rule:nonzero;stroke:none" d="m0 0 27.982 33.883" transform="matrix(.4416 0 0 -.4416 115.517 230.919)"/><path style="fill:#221f1f;fill-opacity:1;fill-rule:nonzero;stroke:none" d="M0 0a1.998 1.998 0 0 0-1.541 3.273l27.982 33.883a1.998 1.998 0 0 0 2.815.268 1.998 1.998 0 0 0 .269-2.815L1.543.727A1.996 1.996 0 0 0 0 0" transform="matrix(.4416 0 0 -.4416 115.517 231.802)"/><g clip-path="url(#b)" transform="matrix(.4416 0 0 -.4416 -56.976 604.664)"><path style="fill:#fff;fill-opacity:1;fill-rule:nonzero;stroke:none" d="M0 0c-3.752-21.783-11.957-47.575-37.993-41.645-30.951 7.053-49.629 30.593-47.829 60.39 1.801 29.797 16.706 45.626 52.126 39.713a54.859 54.859 0 0 0 8.869-2.232c20.13-6.968 29.258-24.697 26.579-44.558C1.268 8.078.719 4.108 0 0" transform="translate(661.266 1203.026)"/><path style="fill:#221f1f;fill-opacity:1;fill-rule:nonzero;stroke:none" d="M0 0c-2.436 0-4.986.303-7.648.909-12.55 2.86-23.58 8.548-31.898 16.449a2 2 0 0 0 2.754 2.901c7.798-7.407 18.183-12.75 30.032-15.45C.517 3.152 6.524 3.992 11.604 7.378c10.897 7.268 15.043 24.863 17.214 37.465.715 4.084 1.252 7.968 1.742 11.596 2.674 19.836-7.001 36.083-25.252 42.401a2 2 0 1 0 1.309 3.78c20.158-6.978 30.851-24.878 27.906-46.715-.494-3.668-1.038-7.596-1.764-11.746-2.295-13.325-6.756-31.986-18.936-40.109C9.778 1.354 5.149 0 0 0" transform="translate(630.477 1158.523)"/><path style="fill:#221f1f;fill-opacity:1;fill-rule:nonzero;stroke:none" d="M0 0s4.009-6.967 9.265-12.945l15.713-2.087 4.149 10.936s10.046-.257 12.592 6.356c0 0 .067.144.164.465.684 2.176 3.428 11.908 3.01 27.356 0 0 23.328-12.316 36.338-14.618 4.677-.83 10.308.595 15.61 2.768 10.612 4.351 20.747 20.434 19.752 31.86l-.02.219c-1.656 16.759-11.091 5.891-11.091 5.891s-1.533 13.508-9.817 15.052c-8.32 1.544-14.471-10.403-14.471-10.403s-22.022 7.659-48.779 5.473C-.221 63.657 6.253 40.852 6.253 40.852S-18.031 34.889 0 0" transform="translate(565.74 1216.829)"/><path style="fill:#fff;fill-opacity:1;fill-rule:nonzero;stroke:none" d="M0 0c2.226 12.345-5.707 24.512-18.038 26.814-2.509.469-5.164.53-7.911-.008-15.699-3.079-14.172-39.24 23.723-39.148z" transform="translate(587.408 1203.736)"/><path style="fill:#221f1f;fill-opacity:1;fill-rule:nonzero;stroke:none" d="M0 0c-22.376 0-33.63 12.572-34.858 25.057-.89 9.049 3.69 16.642 10.89 18.053 2.823.555 5.738.558 8.662.013 13.28-2.48 22.09-15.55 19.64-29.136a2.001 2.001 0 0 0-3.937.71C2.458 26.125-4.916 37.113-16.04 39.191c-2.424.452-4.833.451-7.158-.005-5.134-1.007-8.363-6.785-7.679-13.738C-29.903 15.544-21.23 4-.007 4c.049 0 .101-.006.147 0a1.999 1.999 0 0 0 .005-4Z" transform="translate(585.043 1189.394)"/></g><path d="m1476.885 981.458-41.545 63.522-173.115-329.528 41.545-63.522z" style="fill:#332a50;fill-opacity:1;fill-rule:nonzero;stroke:none" transform="matrix(.4416 0 0 -.4416 -56.976 604.664)"/><path d="m816.63 759.907 41.545-63.522 445.595-44.455-41.545 63.522z" style="fill:#d30c7b;fill-opacity:1;fill-rule:nonzero;stroke:none" transform="matrix(.4416 0 0 -.4416 -56.976 604.664)"/><path style="fill:#fff;fill-opacity:1;fill-rule:nonzero;stroke:none" d="m0 0-173.115-329.528-445.596 44.454 167.952 319.699z" transform="matrix(.4416 0 0 -.4416 576.878 143.195)"/><path style="fill:#221f1f;fill-opacity:1;fill-rule:nonzero;stroke:none" d="m0 0 441.302-44.027 171.074 325.643-446.417 34.292zm442.446-48.151a2.21 2.21 0 0 0-.199.01L-3.349-3.686a1.998 1.998 0 0 0-1.572 2.92L163.03 318.933a1.995 1.995 0 0 0 1.924 1.064l450.76-34.625a2 2 0 0 0 1.617-2.925L444.216-47.081a2 2 0 0 0-1.77-1.07" transform="matrix(.44267 0 0 -.44267 304.717 268.48)"/><path style="fill:#221f1f;fill-opacity:1;fill-rule:nonzero;stroke:none" d="M0 0a2.001 2.001 0 0 0-1.769 2.931l154.54 294.19a2 2 0 1 0 3.541-1.861L1.772 1.07A1.998 1.998 0 0 0 0 0" transform="matrix(.44267 0 0 -.44267 355.845 268.934)"/><path style="fill:#221f1f;fill-opacity:1;fill-rule:nonzero;stroke:none" d="M0 0a2.001 2.001 0 0 0-1.769 2.931l155.84 296.65a2.001 2.001 0 0 0 3.541-1.861L1.772 1.07A1.998 1.998 0 0 0 0 0" transform="matrix(.44267 0 0 -.44267 405.154 273.852)"/><path style="fill:#221f1f;fill-opacity:1;fill-rule:nonzero;stroke:none" d="M0 0a2.001 2.001 0 0 0-1.769 2.931l157.13 299.1a2 2 0 1 0 3.541-1.861L1.772 1.07A1.998 1.998 0 0 0 0 0" transform="matrix(.44267 0 0 -.44267 454.467 278.77)"/><path style="fill:#221f1f;fill-opacity:1;fill-rule:nonzero;stroke:none" d="M0 0c-.055 0-.11.002-.166.007l-410.74 33.9a1.999 1.999 0 0 0-1.829 2.157 1.985 1.985 0 0 0 2.157 1.829L.162 3.993A1.999 1.999 0 0 0 0 0" transform="matrix(.44267 0 0 -.44267 549.567 179.7)"/><path style="fill:#221f1f;fill-opacity:1;fill-rule:nonzero;stroke:none" d="M0 0c-.059 0-.127.002-.186.008l-409.549 36.17a2 2 0 1 0 .351 3.984L.145 3.994A2.003 2.003 0 0 0 1.995 2C1.995.896 1.104 0 0 0" transform="matrix(.44267 0 0 -.44267 530.434 216.128)"/><path style="fill:#221f1f;fill-opacity:1;fill-rule:nonzero;stroke:none" d="M0 0c-.062 0-.125.003-.189.009l-408.38 38.39a2 2 0 0 0-1.804 2.178 1.993 1.993 0 0 0 2.179 1.804L.186 3.991A2 2 0 0 0 0 0" transform="matrix(.44267 0 0 -.44267 511.303 252.542)"/><path d="M1261.808 833.366c-7.367.77-11.65 6.752-9.58 13.354 2.072 6.61 9.712 11.344 17.08 10.573 7.366-.77 11.648-6.753 9.577-13.363-2.07-6.6-9.71-11.335-17.077-10.564m12.826 40.922c-17.824 1.866-36.33-9.584-41.347-25.586-5.013-15.994 5.37-30.466 23.194-32.33 17.824-1.866 36.331 9.583 41.344 25.577 5.015 16.002-5.367 30.474-23.191 32.34" style="fill:#d30c7b;fill-opacity:1;fill-rule:nonzero;stroke:none;stroke-width:1.00240874" transform="matrix(.4416 0 0 -.4416 -56.976 604.664)"/><path d="m1162.582 1009.055-23.718-11.54-13.979 13.978-20.56-10.003-16.124 16.124 20.56 10.003-13.978 13.98 23.718 11.539 13.978-13.978 20.559 10.003 16.126-16.126-20.56-10.003z" style="fill:#332a50;fill-opacity:1;fill-rule:nonzero;stroke:none;stroke-width:1.00240874" transform="matrix(.4416 0 0 -.4416 -56.976 604.664)"/><path style="fill:#221f1f;fill-opacity:1;fill-rule:nonzero;stroke:none" d="M0 0c-.895 0-1.71.605-1.937 1.513A1.999 1.999 0 0 0-.485 3.94 226.65 226.65 0 0 0 5.4 5.354a2 2 0 1 0 .864-3.905C6.243 1.444 4.125.975.489.061A2.003 2.003 0 0 0 0 0" transform="matrix(.44267 0 0 -.44267 415.778 158.701)"/><path style="fill:#221f1f;fill-opacity:1;fill-rule:nonzero;stroke:none" d="M0 0a2.001 2.001 0 0 0-.592 3.911 469.214 469.214 0 0 0 11.531 3.413 1.998 1.998 0 0 0 2.468-1.382 1.998 1.998 0 0 0-1.382-2.467A464.205 464.205 0 0 1 .594.09 2.016 2.016 0 0 0 0 0m-22.666-7.702a2.001 2.001 0 0 0-.697 3.875A422.35 422.35 0 0 0-12.029.199a2 2 0 1 0 1.285-3.788 417.719 417.719 0 0 1-11.225-3.987 1.987 1.987 0 0 0-.697-.126m-22.14-9.072a2 2 0 0 0-.826 3.822 324.4 324.4 0 0 0 11.058 4.755 2 2 0 1 0 1.513-3.702 321.445 321.445 0 0 1-10.92-4.696 2 2 0 0 0-.825-.179m-21.326-10.853c-.691 0-1.364.359-1.734 1.002a1.999 1.999 0 0 0 .733 2.731c3.35 1.931 6.924 3.86 10.624 5.736a2.002 2.002 0 0 0 1.809-3.569 221.055 221.055 0 0 1-10.435-5.632 1.986 1.986 0 0 0-.997-.268m-19.813-13.379a1.999 1.999 0 0 0-1.257 3.556c2.986 2.411 6.28 4.826 9.789 7.178.916.615 2.159.37 2.774-.549a1.998 1.998 0 0 0-.548-2.774 133.894 133.894 0 0 1-9.503-6.968 1.995 1.995 0 0 0-1.255-.443m-16.48-17.225a2 2 0 0 0-1.648 3.129c.264.388.536.773.813 1.158 2.012 2.79 4.374 5.585 7.021 8.306a2 2 0 1 0 2.867-2.788c-2.511-2.582-4.745-5.225-6.643-7.857-.256-.357-.51-.717-.757-1.077a2 2 0 0 0-1.653-.871m271.279-10.665a2.001 2.001 0 0 0-.105 3.997c2.818.152 5.626.229 8.347.229 1.238.017 2.513-.016 3.765-.048a2 2 0 1 0-.103-3.999c-1.217.031-2.44.003-3.662.047-2.65 0-5.385-.075-8.132-.223a1.992 1.992 0 0 0-.11-.003m35.677-2.585c-.134 0-.27.013-.407.042-2.429.502-4.973.956-7.562 1.349-1.341.203-2.708.387-4.06.546a2 2 0 0 0 .467 3.973c1.396-.164 2.807-.354 4.194-.564 2.658-.404 5.273-.871 7.772-1.387a2 2 0 0 0-.404-3.959m-59.403-.286a2.002 2.002 0 0 0-.356 3.969 210.33 210.33 0 0 0 11.933 1.825c1.078.126 2.094-.644 2.229-1.741a2 2 0 0 0-1.743-2.229 206.292 206.292 0 0 1-11.704-1.791 1.998 1.998 0 0 0-.359-.033M121.83-77.14a2.001 2.001 0 0 0-.528 3.929 303.552 303.552 0 0 0 11.668 2.963 2 2 0 0 0 .904-3.897 297.818 297.818 0 0 1-11.514-2.923 1.978 1.978 0 0 0-.53-.072m105.401-1.634a2 2 0 0 0-.851.191c-3.332 1.571-6.994 2.988-10.883 4.213a2 2 0 0 0 1.201 3.816c4.062-1.28 7.893-2.763 11.387-4.41a2 2 0 0 0-.854-3.81m-338.288-1.514a2 2 0 0 0-1.988 2.243c.495 4.057 1.541 8.11 3.107 12.045a2 2 0 0 0 3.717-1.479c-1.44-3.617-2.4-7.334-2.853-11.051a2.001 2.001 0 0 0-1.983-1.758m210.035-3.913a2 2 0 0 0-.643 3.895 458.447 458.447 0 0 0 11.424 3.715 2 2 0 0 0 1.185-3.82 457.36 457.36 0 0 1-11.324-3.683 1.979 1.979 0 0 0-.642-.107m-22.494-8.142a2.002 2.002 0 0 0-.713 3.869 748.915 748.915 0 0 0 11.24 4.186 2 2 0 1 0 1.365-3.759 754.948 754.948 0 0 1-11.179-4.164 2.002 2.002 0 0 0-.713-.132m169.88-.453c-.564 0-1.125.237-1.52.699-2.382 2.784-5.231 5.373-8.466 7.697a2 2 0 1 0 2.334 3.249c3.495-2.511 6.58-5.318 9.171-8.344a2 2 0 0 0-1.519-3.301M54.228-101.11a2.002 2.002 0 0 0-.75 3.855 1487.77 1487.77 0 0 0 11.123 4.443 1.998 1.998 0 0 0 2.594-1.126 1.998 1.998 0 0 0-1.126-2.594 1561.119 1561.119 0 0 1-11.093-4.432 2.002 2.002 0 0 0-.748-.146m-161.639-2.496a2 2 0 0 0-1.819 1.167 45.59 45.59 0 0 0-3.609 11.923 2 2 0 1 0 3.951.62 41.591 41.591 0 0 1 3.294-10.875 2 2 0 0 0-1.817-2.835m139.475-6.535a2 2 0 0 0-.757 3.852l11.077 4.528a2 2 0 1 0 1.512-3.703l-11.076-4.528a2 2 0 0 0-.756-.149m223.917-4.169a2 2 0 0 0-1.98 1.747 38.555 38.555 0 0 1-3.062 10.904 2 2 0 1 0 3.649 1.639 42.51 42.51 0 0 0 3.38-12.036 2 2 0 0 0-1.987-2.254M9.884-119.114a2 2 0 0 0-.74 3.859 1843.73 1843.73 0 0 1 11.088 4.455 2 2 0 1 0 1.502-3.707c-3.698-1.499-7.402-2.99-11.112-4.465a2.003 2.003 0 0 0-.738-.142m-102.365-2.863c-.423 0-.851.134-1.213.412-3.348 2.56-6.351 5.451-8.927 8.593a2.001 2.001 0 0 0 3.094 2.536 49.824 49.824 0 0 1 8.262-7.952 1.999 1.999 0 0 0-1.216-3.589m80.047-5.746a2 2 0 0 0-.696 3.875l.303.112a901.122 901.122 0 0 1 10.856 4.118 1.999 1.999 0 1 0 1.442-3.731 888.525 888.525 0 0 0-10.911-4.138l-.297-.111a2.005 2.005 0 0 0-.697-.125m-58.661-4.618c-.174 0-.35.023-.526.071a68.13 68.13 0 0 0-11.536 4.272 2 2 0 0 0 1.73 3.607 64.118 64.118 0 0 1 10.857-4.02 2 2 0 0 0-.525-3.93m35.574-1.482a2 2 0 0 0-.305 3.976c3.765.586 7.631 1.405 11.486 2.433a1.998 1.998 0 0 0 2.448-1.418 1.999 1.999 0 0 0-1.417-2.447 115.106 115.106 0 0 0-11.902-2.52 2.043 2.043 0 0 0-.31-.024m-14.845-1.18a86.95 86.95 0 0 0-9.203.482 2 2 0 0 0 .425 3.978 84.06 84.06 0 0 1 11.663-.413c1.135.021 2.028-.831 2.064-1.934a2 2 0 0 0-1.935-2.064 92.576 92.576 0 0 0-3.014-.049" transform="matrix(.44267 0 0 -.44267 405.582 161.572)"/><path style="fill:#221f1f;fill-opacity:1;fill-rule:nonzero;stroke:none" d="M0 0a2 2 0 0 0-1.891 2.652c.579 1.679 1.033 3.524 1.349 5.484a2.004 2.004 0 0 0 2.294 1.656 2.001 2.001 0 0 0 1.655-2.294c-.353-2.186-.863-4.255-1.516-6.149A2.002 2.002 0 0 0 0 0" transform="matrix(.44267 0 0 -.44267 518.181 220.054)"/><path d="M945.915 526.754c-14.248 0-25.801-11.54-25.801-25.788 0 14.248-11.54 25.788-25.788 25.788 14.248 0 25.788 11.553 25.788 25.801 0-14.248 11.553-25.8 25.8-25.8" style="fill:#332a50;fill-opacity:1;fill-rule:nonzero;stroke:none" transform="matrix(.4416 0 0 -.4416 -56.976 604.664)"/><path d="M237.631 539.403c-8.902 0-16.12-7.21-16.12-16.11 0 8.9-7.209 16.11-16.11 16.11 8.901 0 16.11 7.218 16.11 16.12 0-8.902 7.218-16.12 16.12-16.12M850.549 1245.003c-12.637 0-22.885-10.235-22.885-22.873 0 12.638-10.235 22.873-22.873 22.873 12.638 0 22.873 10.247 22.873 22.885 0-12.638 10.248-22.885 22.885-22.885" style="fill:#d30c7b;fill-opacity:1;fill-rule:nonzero;stroke:none" transform="matrix(.4416 0 0 -.4416 -56.976 604.664)"/><path d="M287.364 1092.358c0-6.958-5.64-12.599-12.599-12.599-6.959 0-12.599 5.641-12.599 12.6 0 6.957 5.64 12.598 12.6 12.598 6.957 0 12.598-5.64 12.598-12.599" style="fill:#332a50;fill-opacity:1;fill-rule:nonzero;stroke:none" transform="matrix(.4416 0 0 -.4416 -56.976 604.664)"/></g></svg>