<?xml version="1.0" encoding="UTF-8" standalone="no"?>
<!-- Generator: Adobe Illustrator 25.2.3, SVG Export Plug-In . SVG Version: 6.00 Build 0)  -->

<svg
   xmlns:dc="http://purl.org/dc/elements/1.1/"
   xmlns:cc="http://creativecommons.org/ns#"
   xmlns:rdf="http://www.w3.org/1999/02/22-rdf-syntax-ns#"
   xmlns:svg="http://www.w3.org/2000/svg"
   xmlns="http://www.w3.org/2000/svg"
   xmlns:sodipodi="http://sodipodi.sourceforge.net/DTD/sodipodi-0.dtd"
   xmlns:inkscape="http://www.inkscape.org/namespaces/inkscape"
   version="1.1"
   x="0px"
   y="0px"
   viewBox="0 0 600 600"
   style="enable-background:new 0 0 600 600;"
   xml:space="preserve"
   id="svg390"
   sodipodi:docname="Gordian-Hero.svg"
   inkscape:version="0.92.4 (5da689c313, 2019-01-14)"><metadata
   id="metadata396"><rdf:RDF><cc:Work
       rdf:about=""><dc:format>image/svg+xml</dc:format><dc:type
         rdf:resource="http://purl.org/dc/dcmitype/StillImage" /><dc:title></dc:title></cc:Work></rdf:RDF></metadata><defs
   id="defs394">
	

	

	

	

	

	

	

	

	

	

	

	

	

	

	

	

	

	

		
		
	
			
			
		
				
				
				
			
		
		
	
			
			
			
		
			
			
		
				
				
				
				
			
					
					
					
					
				
					
					
				
					
					
				
						
						
						
						
						
						
						
						
						
					
						
						
						
						
					
							
							
						
		
		
		
		
		
		
		
	
		
		
		
	
			
			
		
		
		
		
	
		
		
		
	
			
			
			
			
		
		
		
		
	
		
	
			
			
		
		
		
		
		
		
		
		
		
		
	
		
		
	
			
			
		
			
			
		
				
				
			
			
			
		
				
				
			
				
				
				
			
		
		
	
			
			
		
				
				
				
				
				
			
		
		
	
			
			
		
				
				
				
				
				
			
					
					
					
				
			
			
			
			
			
			
		
			
			
			
			
		
		
		
	
		
		
	</defs><sodipodi:namedview
   pagecolor="#ffffff"
   bordercolor="#666666"
   borderopacity="1"
   objecttolerance="10"
   gridtolerance="10"
   guidetolerance="10"
   inkscape:pageopacity="0"
   inkscape:pageshadow="2"
   inkscape:window-width="1366"
   inkscape:window-height="705"
   id="namedview392"
   showgrid="false"
   inkscape:zoom="0.55625733"
   inkscape:cx="370.76322"
   inkscape:cy="422.00376"
   inkscape:window-x="-8"
   inkscape:window-y="-8"
   inkscape:window-maximized="1"
   inkscape:current-layer="svg390" />
<style
   type="text/css"
   id="style2">
	.st0{fill:#DE9244;}
	.st1{fill:#88C0C2;}
	.st2{fill:#FFFFFF;stroke:#262424;stroke-width:2;stroke-linecap:round;stroke-linejoin:round;stroke-miterlimit:10;}
	.st3{fill:#DE9244;stroke:#262424;stroke-width:2;stroke-linecap:round;stroke-linejoin:round;stroke-miterlimit:10;}
	.st4{fill:none;stroke:#262424;stroke-width:2;stroke-linecap:round;stroke-linejoin:round;stroke-miterlimit:10;}
	.st5{fill:#FFFFFF;}
	.st6{fill:#FFFFFF;stroke:#262424;stroke-width:1.5682398;stroke-linecap:round;stroke-linejoin:round;stroke-miterlimit:10;}
	.st7{fill:#262424;}
</style>
<path
   class="st0"
   d="m 521.8194,327.6127 c -2.82447,0 -5.37738,1.14667 -7.22419,2.99344 -1.85278,1.8468 -2.99343,4.40573 -2.99343,7.22418 0,-2.81845 -1.14066,-5.37738 -2.99347,-7.22418 -1.8468,-1.84677 -4.39969,-2.99344 -7.22419,-2.99344 2.8245,0 5.37739,-1.1467 7.22419,-2.99347 1.85281,-1.84677 2.99347,-4.4057 2.99347,-7.22418 0,2.81848 1.14065,5.37741 2.99343,7.22418 1.84681,1.84677 4.39972,2.99347 7.22419,2.99347 z"
   id="path4"
   inkscape:connector-curvature="0"
   style="fill:#332a50;fill-opacity:0.94117647" /><path
   class="st1"
   d="m 126.74816,225.22072 c -2.79568,0 -5.32257,1.13498 -7.15051,2.96292 -1.83392,1.82794 -2.96292,4.36078 -2.96292,7.15051 0,-2.78973 -1.12904,-5.32257 -2.96296,-7.15051 -1.82795,-1.82794 -4.35481,-2.96292 -7.15052,-2.96292 2.79571,0 5.32257,-1.13501 7.15052,-2.96295 1.83392,-1.82796 2.96296,-4.3608 2.96296,-7.15053 0,2.78973 1.129,5.32257 2.96292,7.15053 1.82794,1.82794 4.35483,2.96295 7.15051,2.96295 z"
   id="path6"
   inkscape:connector-curvature="0"
   style="fill:#d30c7b;fill-opacity:1" /><path
   class="st1"
   d="m 391.30905,288.46194 c -1.78738,0 -3.40295,0.72565 -4.57162,1.89432 -1.17252,1.1687 -1.89435,2.78803 -1.89435,4.57166 0,-1.78363 -0.72183,-3.40296 -1.89435,-4.57166 -1.16867,-1.16867 -2.78421,-1.89432 -4.57162,-1.89432 1.78741,0 3.40295,-0.72567 4.57162,-1.89434 1.17252,-1.1687 1.89435,-2.78806 1.89435,-4.57166 0,1.7836 0.72183,3.40296 1.89435,4.57166 1.16867,1.16867 2.78424,1.89434 4.57162,1.89434 z"
   id="path8"
   inkscape:connector-curvature="0"
   style="fill:#88c0c2" /><path
   class="st0"
   d="m 88.244438,310.29501 c -1.390983,0 -2.648231,0.5647 -3.557716,1.47419 -0.912468,0.90951 -1.474198,2.1697 -1.474198,3.55773 0,-1.38803 -0.561744,-2.64822 -1.474212,-3.55773 -0.909485,-0.90949 -2.166718,-1.47419 -3.557717,-1.47419 1.390999,0 2.648232,-0.56472 3.557717,-1.47421 0.912468,-0.90948 1.474212,-2.16968 1.474212,-3.55771 0,1.38803 0.56173,2.64823 1.474198,3.55771 0.909485,0.90949 2.166733,1.47421 3.557716,1.47421 z"
   id="path10"
   inkscape:connector-curvature="0"
   style="fill:#332a50;fill-opacity:0.94117647" /><circle
   class="st1"
   cx="473.42661"
   cy="286.25464"
   r="2.2072902"
   id="circle12"
   style="fill:#88c0c2" /><circle
   class="st0"
   cx="511.60175"
   cy="538.89435"
   r="3.1659524"
   id="circle14"
   style="fill:#332a50;fill-opacity:0.94117647" /><circle
   class="st1"
   cx="123.81116"
   cy="400.57504"
   r="4.789495"
   id="circle16"
   style="fill:#d30c7b;fill-opacity:1" />
<path
   style="fill:#ffffff;stroke:#262424;stroke-width:2;stroke-linecap:round;stroke-linejoin:round;stroke-miterlimit:10"
   inkscape:connector-curvature="0"
   id="path21"
   d="m 490.07501,333.38269 v 212.16199 c 0,6.13336 -4.97696,11.11035 -11.11029,11.11035 H 172.90285 c -6.13335,0 -11.10031,-4.97699 -11.10031,-11.11035 V 333.38269 c 0,-6.13333 4.96696,-11.11038 11.10031,-11.11038 h 306.06189 c 6.13331,0 11.11027,4.97705 11.11027,11.11038 z"
   class="st2" /><path
   style="fill:#332a50;stroke:#262424;stroke-width:2;stroke-linecap:round;stroke-linejoin:round;stroke-miterlimit:10;fill-opacity:0.94117647"
   inkscape:connector-curvature="0"
   id="path23"
   d="m 490.07501,333.38269 v 24.96552 H 161.80254 v -24.96552 c 0,-6.13333 4.96696,-11.11038 11.10031,-11.11038 h 306.06189 c 6.13331,0 11.11027,4.97705 11.11027,11.11038 z"
   class="st3" /><g
   id="g31">
				<circle
   style="fill:#ffffff;stroke:#262424;stroke-width:2;stroke-linecap:round;stroke-linejoin:round;stroke-miterlimit:10"
   id="circle25"
   r="6.8092513"
   cy="340.79163"
   cx="409.67841"
   class="st2" />
				<circle
   style="fill:#ffffff;stroke:#262424;stroke-width:2;stroke-linecap:round;stroke-linejoin:round;stroke-miterlimit:10"
   id="circle27"
   r="6.8092513"
   cy="340.79163"
   cx="434.04837"
   class="st2" />
				<circle
   style="fill:#ffffff;stroke:#262424;stroke-width:2;stroke-linecap:round;stroke-linejoin:round;stroke-miterlimit:10"
   id="circle29"
   r="6.8092513"
   cy="340.79163"
   cx="458.4183"
   class="st2" />
			</g><path
   style="fill:#d30c7b;fill-opacity:1"
   inkscape:connector-curvature="0"
   id="path35"
   d="m 193.10616,434.39618 h -7.20137 c -1.70607,0 -3.08912,-1.38306 -3.08912,-3.08911 v -37.0665 c 0,-1.70609 1.38305,-3.08911 3.08912,-3.08911 h 7.20137 c 1.70607,0 3.08911,1.38302 3.08911,3.08911 v 37.0665 c 0,1.70605 -1.38304,3.08911 -3.08911,3.08911 z"
   class="st1" /><path
   style="fill:#d30c7b;fill-opacity:1"
   inkscape:connector-curvature="0"
   id="path37"
   d="m 214.84798,434.39618 h -7.20137 c -1.70607,0 -3.08911,-1.38306 -3.08911,-3.08911 v -17.95282 c 0,-1.70609 1.38304,-3.08911 3.08911,-3.08911 h 7.20137 c 1.70605,0 3.08909,1.38302 3.08909,3.08911 v 17.95282 c 0,1.70605 -1.38304,3.08911 -3.08909,3.08911 z"
   class="st1" /><path
   style="fill:#d30c7b;fill-opacity:1"
   inkscape:connector-curvature="0"
   id="path39"
   d="m 236.58978,434.39618 h -7.20135 c -1.70607,0 -3.08911,-1.38306 -3.08911,-3.08911 v -25.12045 c 0,-1.70609 1.38304,-3.08912 3.08911,-3.08912 h 7.20135 c 1.70607,0 3.08911,1.38303 3.08911,3.08912 v 25.12045 c 0,1.70605 -1.38304,3.08911 -3.08911,3.08911 z"
   class="st1" /><path
   style="fill:none;stroke:#262424;stroke-width:2;stroke-linecap:round;stroke-linejoin:round;stroke-miterlimit:10"
   inkscape:connector-curvature="0"
   id="path43"
   d="m 276.94843,456.55048 v 63.78637 c 0,2.77497 -2.24222,5.01721 -5.01731,5.01721 h -85.05179 c -2.77507,0 -5.01722,-2.24224 -5.01722,-5.01721 v -63.78637 c 0,-2.77509 2.24215,-5.01731 5.01722,-5.01731 h 85.05179 c 2.77509,0 5.01731,2.24222 5.01731,5.01731 z"
   class="st4" /><path
   style="fill:#332a50;fill-opacity:0.94117647"
   inkscape:connector-curvature="0"
   id="path45"
   d="m 276.94843,456.55048 v 8.83795 h -95.08632 v -8.83795 c 0,-2.77509 2.24215,-5.01731 5.01722,-5.01731 h 85.05179 c 2.77509,0 5.01731,2.24222 5.01731,5.01731 z"
   class="st0" /><g
   id="g53">
						<line
   style="fill:none;stroke:#262424;stroke-width:2;stroke-linecap:round;stroke-linejoin:round;stroke-miterlimit:10"
   id="line47"
   y2="520.57812"
   x2="204.5575"
   y1="469.92685"
   x1="204.5575"
   class="st4" />
						<line
   style="fill:none;stroke:#262424;stroke-width:2;stroke-linecap:round;stroke-linejoin:round;stroke-miterlimit:10"
   id="line49"
   y2="520.57812"
   x2="229.40527"
   y1="469.92685"
   x1="229.40527"
   class="st4" />
						<line
   style="fill:none;stroke:#262424;stroke-width:2;stroke-linecap:round;stroke-linejoin:round;stroke-miterlimit:10"
   id="line51"
   y2="520.57812"
   x2="254.25304"
   y1="469.92685"
   x1="254.25304"
   class="st4" />
					</g><g
   id="g59">
						<line
   style="fill:none;stroke:#262424;stroke-width:2;stroke-linecap:round;stroke-linejoin:round;stroke-miterlimit:10"
   id="line55"
   y2="482.82864"
   x2="189.02768"
   y1="482.82864"
   x1="269.78305"
   class="st4" />
						<line
   style="fill:none;stroke:#262424;stroke-width:2;stroke-linecap:round;stroke-linejoin:round;stroke-miterlimit:10"
   id="line57"
   y2="507.67642"
   x2="189.02768"
   y1="507.67642"
   x1="269.78305"
   class="st4" />
					</g><path
   style="fill:#332a50;fill-opacity:0.94117647"
   inkscape:connector-curvature="0"
   id="path63"
   d="M 324.84534,509.13977 H 291.474 c -2.11618,0 -3.8317,-1.71548 -3.8317,-3.83166 v -0.0418 c 0,-2.11618 1.71552,-3.8317 3.8317,-3.8317 h 33.37134 c 2.11618,0 3.83166,1.71552 3.83166,3.8317 v 0.0418 c 0,2.11618 -1.71548,3.83166 -3.83166,3.83166 z"
   class="st0" /><path
   style="fill:#332a50;fill-opacity:0.94117647"
   inkscape:connector-curvature="0"
   id="path65"
   d="M 312.48117,525.35406 H 291.474 c -2.11618,0 -3.8317,-1.71551 -3.8317,-3.83166 v -0.0419 c 0,-2.11615 1.71552,-3.83167 3.8317,-3.83167 h 21.00717 c 2.11618,0 3.83167,1.71552 3.83167,3.83167 v 0.0419 c 0,2.11615 -1.71549,3.83166 -3.83167,3.83166 z"
   class="st0" /><path
   class="st2"
   d="m 413.77695,430.26773 h 52.01901 c 2.26309,0 4.09167,2.24222 4.09167,5.0173 v 85.05182 c 0,2.77503 -1.82858,5.01721 -4.09167,5.01721 h -52.01901 c -2.26313,0 -4.09171,-2.24218 -4.09171,-5.01721 v -85.05182 c 0,-2.77508 1.82858,-5.0173 4.09171,-5.0173 z"
   id="path69"
   inkscape:connector-curvature="0"
   style="fill:#ffffff;stroke:#262424;stroke-width:2;stroke-linecap:round;stroke-linejoin:round;stroke-miterlimit:10" /><line
   class="st2"
   x1="418.64191"
   y1="501.43454"
   x2="460.93097"
   y2="501.43454"
   id="line71"
   style="fill:#ffffff;stroke:#262424;stroke-width:2;stroke-linecap:round;stroke-linejoin:round;stroke-miterlimit:10" /><line
   class="st2"
   x1="418.64191"
   y1="510.54343"
   x2="460.93097"
   y2="510.54343"
   id="line73"
   style="fill:#ffffff;stroke:#262424;stroke-width:2;stroke-linecap:round;stroke-linejoin:round;stroke-miterlimit:10" /><path
   style="fill:#d30c7b;fill-opacity:1"
   inkscape:connector-curvature="0"
   id="path75"
   d="m 439.78641,443.20737 c -13.35514,0 -24.18927,10.83413 -24.18927,24.18933 0,13.36285 10.83413,24.1893 24.18927,24.1893 13.35519,0 24.18936,-10.82645 24.18936,-24.1893 0,-13.3552 -10.83417,-24.18933 -24.18936,-24.18933 z m 0,35.41015 c -6.19425,0 -11.22083,-5.02655 -11.22083,-11.22082 0,-6.19428 5.02658,-11.22083 11.22083,-11.22083 6.19427,0 11.22082,5.02655 11.22082,11.22083 0,6.19427 -5.02655,11.22082 -11.22082,11.22082 z"
   class="st1" /><path
   style="fill:#332a50;fill-opacity:0.94117647"
   inkscape:connector-curvature="0"
   id="path77"
   d="m 463.97577,467.3967 h -12.96854 c 0,-6.19428 -5.02655,-11.22083 -11.22082,-11.22083 v -12.9685 c 13.35519,0 24.18936,10.83413 24.18936,24.18933 z"
   class="st0" /><path
   class="st1"
   d="m 470.01544,401.15964 -0.1307,0.0503 v 18.01788 c 0,2.77503 -1.82996,5.01725 -4.09223,5.01725 h -52.01248 c -2.26227,0 -4.09216,-2.24222 -4.09216,-5.01725 v -19.07361 l 2.72476,-1.0155 20.95379,-7.75207 15.10199,5.59036 7.1991,-2.66449 14.21723,5.26858 z"
   id="path83"
   inkscape:connector-curvature="0"
   style="fill:#d30c7b;fill-opacity:1" /><path
   class="st0"
   d="m 469.88474,401.2099 v 18.01788 c 0,2.77503 -1.82996,5.01725 -4.09223,5.01725 h -52.01248 c -2.26227,0 -4.09216,-2.24222 -4.09216,-5.01725 v -21.09457 l 2.72476,1.00546 12.64871,4.68546 7.19907,-2.66449 18.87249,6.98797 z"
   id="path85"
   inkscape:connector-curvature="0"
   style="fill:#332a50;fill-opacity:0.94117647" /><path
   class="st4"
   d="m 409.68784,396.57477 v 1.55847 2.02097 19.07357 c 0,2.77506 1.82995,5.01725 4.09222,5.01725 h 52.01242 c 2.2623,0 4.09222,-2.24219 4.09222,-5.01725 v -18.01785 -1.62884 -3.00632"
   id="path87"
   inkscape:connector-curvature="0"
   style="fill:none;stroke:#262424;stroke-width:2;stroke-linecap:round;stroke-linejoin:round;stroke-miterlimit:10" /><circle
   class="st0"
   cx="433.36642"
   cy="391.3866"
   r="1.7426307"
   id="circle89"
   style="fill:#332a50;fill-opacity:0.94117647" /><circle
   class="st0"
   cx="448.47458"
   cy="396.98016"
   r="1.7426307"
   id="circle91"
   style="fill:#332a50;fill-opacity:0.94117647" /><circle
   class="st5"
   cx="425.07095"
   cy="403.83066"
   r="1.7426307"
   id="circle93"
   style="fill:#ffffff" /><circle
   class="st5"
   cx="432.26099"
   cy="401.15402"
   r="1.7426307"
   id="circle95"
   style="fill:#ffffff" /><circle
   class="st5"
   cx="451.13715"
   cy="408.14761"
   r="1.7426307"
   id="circle97"
   style="fill:#ffffff" /><circle
   class="st0"
   cx="455.68701"
   cy="394.32217"
   r="1.7426307"
   id="circle99"
   style="fill:#332a50;fill-opacity:0.94117647" /><path
   style="fill:#d30c7b;fill-opacity:1"
   inkscape:connector-curvature="0"
   id="path107"
   d="m 324.22635,381.89523 -21.23489,21.2349 c -0.87287,0.87289 -0.96592,2.25671 -0.21772,3.23855 l 50.85837,66.74161 c 0.7482,0.98187 0.65518,2.36566 -0.21771,3.23856 l -4.34763,4.34765 c -0.9631,0.96308 -0.9631,2.52457 0,3.48764 l 14.31919,14.31919 c 0.73696,0.73697 0.93106,1.85766 0.48492,2.79956 l -2.55218,5.38791 c -0.29734,0.62774 -0.31617,1.35177 -0.0519,1.99414 l 8.81192,21.41552 c 0.38034,0.92438 1.28103,1.52777 2.2806,1.52777 v 0 c 1.49534,0 2.64658,-1.32006 2.44324,-2.80151 l -1.88602,-13.74097 c -0.1426,-1.039 0.38752,-2.05456 1.32151,-2.53161 l 7.7269,-3.94647 c 1.05712,-0.53995 1.57962,-1.75638 1.2434,-2.89481 l -2.40954,-8.1586 c -0.25589,-0.86649 -0.0175,-1.8035 0.62134,-2.44235 l 11.18631,-11.18631 c 0.7742,-0.7742 0.94525,-1.9661 0.4201,-2.92679 l -9.43277,-17.25507 c -0.43249,-0.79113 -1.26227,-1.2832 -2.16391,-1.2832 h -26.44162 c -0.81586,0 -1.57892,-0.4035 -2.03821,-1.07779 l -6.53802,-9.59839 c -0.66702,-0.97921 -0.5434,-2.29437 0.29437,-3.13217 l 0.46616,-0.46612 c 0.75915,-0.75916 1.92224,-0.93998 2.876,-0.44709 l 8.82303,4.55951 c 1.12451,0.58112 2.50641,0.21652 3.19788,-0.84372 l 11.29635,-17.3211 c 0.55747,-0.85477 0.53089,-1.96457 -0.0669,-2.79169 l -13.40259,-18.54544 c -0.60931,-0.84314 -1.68219,-1.21326 -2.68179,-0.92514 l -8.12662,2.34225 c -0.86258,0.24863 -1.79208,0.009 -2.42685,-0.62585 l -2.48217,-2.48218 c -1.14927,-1.14926 -0.89191,-3.07663 0.51864,-3.88409 l 8.64343,-4.94788 c 1.10755,-0.634 1.54844,-2.00821 1.01651,-3.16821 l -5.36438,-11.69861 c -0.31875,-0.69516 -0.94198,-1.20313 -1.68716,-1.37506 l -20.78128,-4.79569 c -0.82852,-0.19119 -1.69711,0.0579 -2.29837,0.65915 z"
   class="st1" />
<path
   class="st1"
   d="m 130.27946,494.08911 c -8.22376,13.04422 -16.57525,21.22028 -16.57525,21.22028 -8.09731,-20.27008 -6.96543,-38.29233 -2.15677,-53.08924 3.19179,-9.83865 7.99731,-18.24218 12.80959,-24.93332 8.21418,-11.44122 16.39877,-17.88543 16.39877,-17.88543 9.64804,21.98523 5.01199,43.73504 -2.9534,60.93908 -2.32103,5.00592 -4.91234,9.62745 -7.52294,13.74863 z"
   id="path114"
   inkscape:connector-curvature="0"
   style="fill:#d30c7b;fill-opacity:1" /><path
   class="st5"
   d="m 130.27946,494.08911 c -4.18677,-21.27832 -8.18317,-13.11713 -14.36414,-21.97653 -2.19437,-3.15521 -3.5466,-6.66058 -4.36788,-9.89243 3.19179,-9.83865 7.99731,-18.24218 12.80959,-24.93332 -0.49888,4.00284 -0.89449,12.22007 2.64888,19.46946 4.72154,9.65582 9.88914,2.35208 10.79649,23.58419 -2.32103,5.00592 -4.91234,9.62745 -7.52294,13.74863 z"
   id="path116"
   inkscape:connector-curvature="0"
   style="fill:#ffffff" /><path
   class="st4"
   d="m 138.55165,426.82104 c 0,0 -13.06357,54.98304 -23.60698,82.43964"
   id="path118"
   inkscape:connector-curvature="0"
   style="fill:none;stroke:#262424;stroke-width:2;stroke-linecap:round;stroke-linejoin:round;stroke-miterlimit:10" /><path
   class="st0"
   d="m 117.22646,484.86819 c -1.24382,18.21183 -5.35484,31.42228 -5.35484,31.42228 -19.822243,-16.57529 -28.764519,-35.99158 -32.063888,-54.11179 -2.199547,-12.04523 -1.911469,-23.50125 -0.654633,-33.17664 2.13411,-16.53601 7.043839,-27.84802 7.043839,-27.84802 22.401532,17.4917 29.785702,42.76044 31.147382,65.16196 0.39277,6.52011 0.288,12.79144 -0.11786,18.55221 z"
   id="path122"
   inkscape:connector-curvature="0"
   style="fill:#332a50;fill-opacity:0.94117647" /><path
   class="st5"
   d="m 117.22646,484.86819 c -16.31344,-19.82223 -15.89446,-9.07315 -27.311184,-14.83395 -4.058762,-2.05554 -7.4366,-4.94894 -10.107544,-7.85556 -2.199547,-12.04523 -1.911469,-23.50125 -0.654633,-33.17664 1.728241,4.45142 5.931,13.23661 13.694908,18.80097 10.343203,7.4104 11.626253,-3.10294 24.496313,18.51297 0.39277,6.52011 0.288,12.79144 -0.11786,18.55221 z"
   id="path124"
   inkscape:connector-curvature="0"
   style="fill:#ffffff" /><path
   class="st4"
   d="m 88.067131,410.12375 c 0,0 17.266699,64.63348 21.700039,99.16687"
   id="path126"
   inkscape:connector-curvature="0"
   style="fill:none;stroke:#262424;stroke-width:2;stroke-linecap:round;stroke-linejoin:round;stroke-miterlimit:10" /><path
   class="st2"
   d="m 145.21466,508.1207 c 0,34.06692 -12.60811,48.53433 -12.60811,48.53433 H 91.548035 c 0,0 -12.608193,-14.46741 -12.608193,-48.53433 z"
   id="path132"
   inkscape:connector-curvature="0"
   style="fill:#ffffff;stroke:#262424;stroke-width:2;stroke-linecap:round;stroke-linejoin:round;stroke-miterlimit:10" />
<polyline
   style="fill:none;stroke:#262424;stroke-width:2;stroke-linecap:round;stroke-linejoin:round;stroke-miterlimit:10"
   id="polyline137"
   points="171.1353149,131.3496552 160.8580933,141.6268921 148.7986755,141.6268921    "
   class="st4" /><circle
   style="fill:#332a50;fill-opacity:0.94117647"
   id="circle139"
   r="3.8316832"
   cy="141.62689"
   cx="144.967"
   class="st0" /><path
   class="st1"
   d="m 91.041252,136.65164 h 31.930698 c 2.74775,0 4.97525,2.2275 4.97525,4.97524 v 1e-5 c 0,2.74776 -2.2275,4.97525 -4.97525,4.97525 H 91.041252 c -2.747749,0 -4.975243,-2.22749 -4.975243,-4.97525 v -1e-5 c 1e-6,-2.74774 2.227494,-4.97524 4.975243,-4.97524 z"
   id="path143"
   inkscape:connector-curvature="0"
   style="fill:#d30c7b;fill-opacity:1" />
<path
   style="fill:#ffffff;stroke:#262424;stroke-width:2;stroke-linecap:round;stroke-linejoin:round;stroke-miterlimit:10"
   inkscape:connector-curvature="0"
   id="path148"
   d="m 406.90662,60.24884 c -49.33258,0 -89.35294,40.02036 -89.35294,89.35313 0,49.36118 40.02036,89.35296 89.35294,89.35296 49.33276,0 89.35312,-39.99178 89.35312,-89.35296 0,-49.33277 -40.02036,-89.35313 -89.35312,-89.35313 z m 0,130.80177 c -22.88102,0 -41.44864,-18.56761 -41.44864,-41.44864 0,-22.88102 18.56762,-41.44864 41.44864,-41.44864 22.88104,0 41.44864,18.5676 41.44864,41.44864 0,22.88105 -18.5676,41.44864 -41.44864,41.44864 z"
   class="st2" /><path
   style="fill:#332a50;fill-opacity:0.94117647"
   inkscape:connector-curvature="0"
   id="path150"
   d="M 451.25418,146.60214 C 449.77274,124.4786 432.02957,106.73544 409.90652,105.2535 V 63.299889 c 45.23926,1.550293 81.75196,38.062991 83.30176,83.302251 z"
   class="st0" /><polyline
   class="st4"
   points="433.0992432,58.5974236 443.3764954,48.3201942 455.4358826,48.3201942     "
   id="polyline154"
   style="fill:none;stroke:#262424;stroke-width:2;stroke-linecap:round;stroke-linejoin:round;stroke-miterlimit:10" /><circle
   class="st0"
   cx="459.26758"
   cy="48.320194"
   r="3.8316832"
   id="circle156"
   style="fill:#332a50;fill-opacity:0.94117647" /><path
   style="fill:#d30c7b;fill-opacity:1"
   inkscape:connector-curvature="0"
   id="path160"
   d="m 513.1933,53.295441 h -31.9307 c -2.74774,0 -4.97522,-2.22749 -4.97522,-4.975243 v -8e-6 c 0,-2.747753 2.22748,-4.975242 4.97522,-4.975242 h 31.9307 c 2.74774,0 4.97528,2.227489 4.97528,4.975242 v 8e-6 c 0,2.747753 -2.22754,4.975243 -4.97528,4.975243 z"
   class="st1" /><polyline
   class="st4"
   points="433.0992432,240.6063385 443.3764954,250.8835602 455.4358826,250.8835602     "
   id="polyline164"
   style="fill:none;stroke:#262424;stroke-width:2;stroke-linecap:round;stroke-linejoin:round;stroke-miterlimit:10" /><circle
   class="st0"
   cx="459.26758"
   cy="250.88356"
   r="3.8316832"
   id="circle166"
   style="fill:#332a50;fill-opacity:0.94117647" /><path
   style="fill:#d30c7b;fill-opacity:1"
   inkscape:connector-curvature="0"
   id="path170"
   d="m 513.1933,245.90833 h -31.9307 c -2.74774,0 -4.97522,2.22747 -4.97522,4.97523 v 2e-5 c 0,2.74774 2.22748,4.97523 4.97522,4.97523 h 31.9307 c 2.74774,0 4.97528,-2.22749 4.97528,-4.97523 v -2e-5 c 0,-2.74776 -2.22754,-4.97523 -4.97528,-4.97523 z"
   class="st1" />
<polygon
   style="fill:#332a50;fill-opacity:0.94117647"
   id="polygon177"
   points="198.19841,180.15901 181.69841,196.65901 171.86839,186.82906 170.86839,185.82906 160.02837,196.65901 150.19841,186.82906 161.03838,175.99904 170.86839,166.16902 181.69841,176.99904 188.36839,170.32906 185.67839,167.63905 200.89836,167.63905 200.89836,182.85902 "
   class="st0" />
<path
   class="st1"
   d="m 205.59447,92.584282 -0.13001,0.04999 v 17.920038 c 0,2.75995 -1.82,4.98999 -4.07001,4.98999 h -51.73004 c -2.25,0 -4.06994,-2.23004 -4.06994,-4.98999 V 91.584282 l 2.70996,-1.01001 20.84002,-7.709961 15.01996,5.559998 7.16004,-2.650025 14.14001,5.239991 z"
   id="path180"
   inkscape:connector-curvature="0"
   style="fill:#d30c7b;fill-opacity:1" /><path
   class="st0"
   d="m 205.46446,92.63427 v 17.92004 c 0,2.75995 -1.82,4.98999 -4.07001,4.98999 h -51.73004 c -2.25,0 -4.06994,-2.23004 -4.06994,-4.98999 V 89.574272 l 2.70996,1 12.58002,4.660034 7.15997,-2.650024 18.77002,6.950012 z"
   id="path182"
   inkscape:connector-curvature="0"
   style="fill:#332a50;fill-opacity:0.94117647" /><path
   class="st4"
   d="m 145.59444,88.0243 v 1.550003 2.010002 18.969995 c 0,2.76 1.82,4.99 4.07,4.99 h 51.73 c 2.25,0 4.07001,-2.23 4.07001,-4.99 V 92.6343 91.014297 88.0243"
   id="path184"
   inkscape:connector-curvature="0"
   style="fill:none;stroke:#262424;stroke-width:2;stroke-linecap:round;stroke-linejoin:round;stroke-miterlimit:10" /><circle
   class="st0"
   cx="169.14444"
   cy="82.864304"
   r="1.7331684"
   id="circle186"
   style="fill:#332a50;fill-opacity:0.94117647" /><circle
   class="st0"
   cx="184.17056"
   cy="88.42749"
   r="1.7331684"
   id="circle188"
   style="fill:#332a50;fill-opacity:0.94117647" /><circle
   class="st5"
   cx="160.89401"
   cy="95.240799"
   r="1.7331684"
   id="circle190"
   style="fill:#ffffff" /><circle
   class="st5"
   cx="168.045"
   cy="92.578674"
   r="1.7331684"
   id="circle192"
   style="fill:#ffffff" /><circle
   class="st5"
   cx="186.81868"
   cy="99.534302"
   r="1.7331684"
   id="circle194"
   style="fill:#ffffff" /><circle
   class="st0"
   cx="191.34383"
   cy="85.78392"
   r="1.7331684"
   id="circle196"
   style="fill:#332a50;fill-opacity:0.94117647" />
<path
   style="fill:#332a50;fill-opacity:1"
   inkscape:connector-curvature="0"
   id="path201"
   d="m 242.36122,245.04201 c -0.36969,1.18359 -0.74124,2.27235 -1.11455,3.26626 -0.46037,1.23909 -0.94041,2.4406 -1.42465,3.58841 -2.84288,6.68648 -9.75336,10.69863 -16.97175,9.82683 -0.86858,-0.10364 -1.71927,-0.26462 -2.53661,-0.49893 -8.83817,-2.39398 -14.48094,-11.39577 -12.44852,-20.61932 l 2.17028,-15.38456 c 0,0 16.49392,-63.79953 20.0198,-72.22723 3.65347,-8.73268 13.90741,-14.45287 13.90741,-14.45287 10.42662,9.91982 12.16136,23.83503 8.92189,49.26578 -1.18352,9.28967 -5.42671,40.9861 -10.5233,57.23563 z"
   class="st0" /><path
   style="fill:#332a50;fill-opacity:0.94117647"
   inkscape:connector-curvature="0"
   id="path203"
   d="m 242.36122,245.04201 c -0.36969,1.18359 -0.74124,2.27235 -1.11455,3.26626 -0.46037,1.23909 -0.94041,2.4406 -1.42465,3.58841 -2.84288,6.68648 -9.71399,10.85762 -16.93239,9.98583 -0.86859,-0.10367 -1.71927,-0.26462 -2.53662,-0.49897 -0.74901,-2.63311 -0.80485,-5.65728 0.0717,-8.46357 2.40607,-7.70299 10.59854,-11.99562 18.31102,-9.5866 1.31725,0.41144 2.53012,0.98935 3.62549,1.70864 z"
   class="st5" />
<path
   class="st1"
   d="m 301.04691,281.25088 -5.54941,28.2208 c -1.60794,8.17691 -8.77677,14.07333 -17.11029,14.07333 h -60.67685 c -11.25075,0 -19.9998,-9.78607 -18.74478,-20.96661 v -3e-5 c 0.98539,-8.77847 7.93107,-15.6973 16.71328,-16.64868 l 45.44724,-2.2038 v -18.25436 h 39.92081 z"
   id="path210"
   inkscape:connector-curvature="0"
   style="fill:#d30c7b;fill-opacity:1" /><g
   id="g216">
			<path
   class="st4"
   d="m 288.45282,273.44867 -4.76971,26.02902 c -0.81464,4.44541 -4.68882,7.6742 -9.20826,7.6742 h -42.1028"
   id="path212"
   inkscape:connector-curvature="0"
   style="fill:none;stroke:#262424;stroke-width:2;stroke-linecap:round;stroke-linejoin:round;stroke-miterlimit:10" />
			<path
   class="st6"
   d="m 280.4238,273.44867 -2.75977,15.91461 c -0.44598,2.57199 0.69208,5.16089 2.88867,6.57117 l 3.38181,2.17123"
   id="path214"
   inkscape:connector-curvature="0"
   style="fill:#ffffff;stroke:#262424;stroke-width:1.56823981;stroke-linecap:round;stroke-linejoin:round;stroke-miterlimit:10" />
		</g>
<g
   id="g225">
				<g
   id="g223">
					<polygon
   style="fill:#ffffff;stroke:#262424;stroke-width:2;stroke-linecap:round;stroke-linejoin:round;stroke-miterlimit:10"
   id="polygon221"
   points="266.35449,416.08496 253.25848,381.10056 237.73909,389.79114 253.73959,422.95206 "
   class="st2" />
				</g>
			</g><path
   class="st1"
   d="m 261.03171,493.64084 5.26831,3.62225 44.76761,-65.11142 c 0,0 -2.60407,-2.10113 -7.08814,-5.48288 -8.81814,-6.6604 -23.78488,-17.63858 -41.52072,-28.05249 l -17.61903,18.49198 c 0,0 6.29562,30.595 9.82943,56.39712 0.36707,2.67807 0.63279,5.41782 0.76218,8.19534 0.24927,5.33341 2.17644,9.586 5.60036,11.9401 z"
   id="path227"
   inkscape:connector-curvature="0"
   style="fill:#d30c7b;fill-opacity:1" /><path
   class="st4"
   d="m 261.03171,493.64084 5.26831,3.62225 44.76761,-65.11142 c 0,0 -2.60407,-2.10113 -7.08814,-5.48288 -8.81814,-6.6604 -23.78488,-17.63858 -41.52072,-28.05249 l -17.61903,18.49198 c 0,0 6.29562,30.595 9.82943,56.39712 0.36707,2.67807 0.63279,5.41782 0.76218,8.19534 0.24927,5.33341 2.17644,9.586 5.60036,11.9401 z"
   id="path229"
   inkscape:connector-curvature="0"
   style="fill:none;stroke:#262424;stroke-width:2;stroke-linecap:round;stroke-linejoin:round;stroke-miterlimit:10" /><line
   class="st4"
   x1="257.31152"
   y1="411.96481"
   x2="266.25558"
   y2="454.18478"
   id="line231"
   style="fill:none;stroke:#262424;stroke-width:2;stroke-linecap:round;stroke-linejoin:round;stroke-miterlimit:10" /><g
   id="g235">
					
						<ellipse
   transform="rotate(-55.489397,279.86284,425.87808)"
   class="st5"
   cx="279.86285"
   cy="425.87802"
   rx="7.0155001"
   ry="7.8097973"
   id="ellipse233"
   style="fill:#ffffff" />
				</g><g
   id="g239">
					<path
   class="st2"
   d="m 261.03171,493.64084 5.26831,3.62225 44.76761,-65.11142 c 0,0 -2.60407,-2.10113 -7.08814,-5.48288 l -23.63339,34.37317 c 0,0 -16.82352,-8.32992 -25.67693,12.46344 0.36707,2.67807 0.63279,5.41782 0.76218,8.19534 0.24927,5.33341 2.17644,9.586 5.60036,11.9401 z"
   id="path237"
   inkscape:connector-curvature="0"
   style="fill:#ffffff;stroke:#262424;stroke-width:2;stroke-linecap:round;stroke-linejoin:round;stroke-miterlimit:10" />
				</g><path
   style="fill:#d30c7b;fill-opacity:1"
   inkscape:connector-curvature="0"
   id="path245"
   d="m 235.45866,301.548 23.49331,85.4509 -23.95392,10.27939 -40.91964,-73.98273 -1.37661,-2.48498 -0.75868,-1.37833 c -3.7716,-6.83231 -4.21804,-15.11218 -0.81211,-22.13534 1.30005,-2.69519 3.20139,-5.35972 5.9386,-7.66889 0.50246,-0.42837 1.03149,-0.83957 1.59491,-1.23993 0.89587,-0.64114 1.86517,-1.23862 2.91414,-1.78461 5.97391,-3.14767 11.4944,-3.40725 16.19464,-2.35583 8.63507,1.94739 15.34586,8.7692 17.68536,17.30035 z"
   class="st1" /><polyline
   style="fill:none;stroke:#262424;stroke-width:2;stroke-linecap:round;stroke-linejoin:round;stroke-miterlimit:10"
   id="polyline247"
   points="236.6472168,307.151886 223.0710449,307.151886 246.8710175,377.6060181    "
   class="st4" /><line
   style="fill:none;stroke:#262424;stroke-width:2;stroke-linecap:round;stroke-linejoin:round;stroke-miterlimit:10"
   id="line249"
   y2="382.09247"
   x2="255.00572"
   y1="390.29327"
   x1="234.42155"
   class="st4" /><path
   style="fill:#ffffff;stroke:#262424;stroke-width:2;stroke-linecap:round;stroke-linejoin:round;stroke-miterlimit:10"
   inkscape:connector-curvature="0"
   id="path251"
   d="m 212.33896,295.02393 c 6.12901,7.64691 4.89139,18.81448 -2.7477,24.93722 -4.53352,3.63364 -10.29699,4.67743 -15.51285,3.33441 l -1.37661,-2.48498 -0.75868,-1.37833 c -3.7716,-6.83231 -4.21804,-15.11218 -0.81211,-22.13534 1.30005,-2.69519 3.20139,-5.35972 5.9386,-7.66889 0.50246,-0.42837 1.03149,-0.83957 1.59491,-1.23993 5.13818,0.0468 10.21591,2.32077 13.67444,6.63584 z"
   class="st2" />
<path
   class="st1"
   d="m 343.8176,281.25088 -5.54941,28.2208 c -1.60794,8.17691 -8.77674,14.07333 -17.11026,14.07333 h -35.57285 c -11.25076,0 -19.99978,-9.78607 -18.74478,-20.96661 v -3e-5 c 0.98538,-8.77847 7.93106,-15.6973 16.71329,-16.64868 l 20.34323,-2.2038 v -18.25436 h 39.92078 z"
   id="path258"
   inkscape:connector-curvature="0"
   style="fill:#d30c7b;fill-opacity:1" /><g
   id="g264">
			<path
   class="st4"
   d="m 331.22354,273.44867 -4.76974,26.02902 c -0.81461,4.44541 -4.68882,7.6742 -9.20822,7.6742 h -18.24836"
   id="path260"
   inkscape:connector-curvature="0"
   style="fill:none;stroke:#262424;stroke-width:2;stroke-linecap:round;stroke-linejoin:round;stroke-miterlimit:10" />
			<path
   class="st4"
   d="m 323.19452,273.44867 -2.75977,15.91461 c -0.44601,2.57199 0.69208,5.16089 2.88868,6.57117 l 3.3818,2.17123"
   id="path262"
   inkscape:connector-curvature="0"
   style="fill:none;stroke:#262424;stroke-width:2;stroke-linecap:round;stroke-linejoin:round;stroke-miterlimit:10" />
		</g>
<g
   id="g273">
				<g
   id="g271">
					<polygon
   style="fill:#ffffff;stroke:#262424;stroke-width:2;stroke-linecap:round;stroke-linejoin:round;stroke-miterlimit:10"
   id="polygon269"
   points="260.198,427.90039 271.85883,392.4118 254.3139,389.48709 246.05989,425.36932 "
   class="st2" />
				</g>
			</g><path
   class="st1"
   d="m 207.54048,485.0881 1.84548,6.12131 75.65329,-22.8082 c 0,0 -0.71787,-3.26812 -2.10178,-8.71127 -2.7153,-10.712 -7.52795,-28.63861 -14.85419,-47.85669 l -25.31315,3.41013 c 0,0 -14.22194,27.81051 -27.60141,50.15393 -1.38848,2.31924 -2.8946,4.62326 -4.53072,6.87146 -3.14105,4.31753 -4.29689,8.84109 -3.09752,12.81933 z"
   id="path275"
   inkscape:connector-curvature="0"
   style="fill:#d30c7b;fill-opacity:1" /><path
   class="st4"
   d="m 207.54048,485.0881 1.84548,6.12131 75.65329,-22.8082 c 0,0 -0.71787,-3.26812 -2.10178,-8.71127 -2.7153,-10.712 -7.52795,-28.63861 -14.85419,-47.85669 l -25.31315,3.41013 c 0,0 -14.22194,27.81051 -27.60141,50.15393 -1.38848,2.31924 -2.8946,4.62326 -4.53072,6.87146 -3.14105,4.31753 -4.29689,8.84109 -3.09752,12.81933 z"
   id="path277"
   inkscape:connector-curvature="0"
   style="fill:none;stroke:#262424;stroke-width:2;stroke-linecap:round;stroke-linejoin:round;stroke-miterlimit:10" /><line
   class="st4"
   x1="255.7186"
   y1="419.02991"
   x2="236.29285"
   y2="457.56772"
   id="line279"
   style="fill:none;stroke:#262424;stroke-width:2;stroke-linecap:round;stroke-linejoin:round;stroke-miterlimit:10" /><g
   id="g283">
					
						<ellipse
   transform="rotate(-16.777163,264.61381,443.99018)"
   class="st5"
   cx="264.61386"
   cy="443.99017"
   rx="7.0155001"
   ry="7.8097973"
   id="ellipse281"
   style="fill:#ffffff" />
				</g><g
   id="g287">
					<path
   class="st2"
   d="m 207.54048,485.0881 1.84548,6.12131 75.65329,-22.8082 c 0,0 -0.71787,-3.26812 -2.10178,-8.71127 l -39.93837,12.04074 c 0,0 -7.91774,-17.02136 -27.83038,-6.33337 -1.38848,2.31924 -2.8946,4.62326 -4.53072,6.87146 -3.14105,4.31753 -4.29689,8.84109 -3.09752,12.81933 z"
   id="path285"
   inkscape:connector-curvature="0"
   style="fill:#ffffff;stroke:#262424;stroke-width:2;stroke-linecap:round;stroke-linejoin:round;stroke-miterlimit:10" />
				</g><path
   style="fill:#d30c7b;fill-opacity:1"
   inkscape:connector-curvature="0"
   id="path293"
   d="m 307.72256,319.20505 -35.11004,81.36999 -25.11998,-6.96002 14.34001,-83.32001 0.47998,-2.79998 0.27002,-1.54999 c 1.33002,-7.69 6.15997,-14.42999 13.20996,-17.78003 2.70001,-1.28998 5.85004,-2.17999 9.43005,-2.26996 0.65998,-0.02 1.32996,-0.01 2.01996,0.03 1.10004,0.06 2.23004,0.20001 3.39002,0.42999 6.63,1.28003 11.09997,4.53003 14.10998,8.29004 5.52002,6.91998 6.48999,16.44 2.98004,24.56 z"
   class="st1" /><line
   style="fill:none;stroke:#262424;stroke-width:2;stroke-linecap:round;stroke-linejoin:round;stroke-miterlimit:10"
   id="line295"
   y2="367.15338"
   x2="252.04678"
   y1="390.36728"
   x1="248.0515"
   class="st4" /><polyline
   style="fill:none;stroke:#262424;stroke-width:2;stroke-linecap:round;stroke-linejoin:round;stroke-miterlimit:10"
   id="polyline297"
   points="309.6746216,307.151886 297.7185974,307.151886 268.8212891,386.3450317    "
   class="st4" /><line
   style="fill:none;stroke:#262424;stroke-width:2;stroke-linecap:round;stroke-linejoin:round;stroke-miterlimit:10"
   id="line299"
   y2="393.05505"
   x2="273.18393"
   y1="387.53149"
   x1="252.86711"
   class="st4" /><path
   style="fill:#ffffff;stroke:#262424;stroke-width:2;stroke-linecap:round;stroke-linejoin:round;stroke-miterlimit:10"
   inkscape:connector-curvature="0"
   id="path301"
   d="m 293.76254,299.65506 c 0,9.79999 -7.95001,17.73999 -17.73999,17.73999 -5.81,0 -10.96002,-2.79004 -14.19,-7.10004 l 0.47998,-2.79998 0.27002,-1.54999 c 1.33002,-7.69 6.15997,-14.42999 13.20996,-17.78003 2.70001,-1.28998 5.85004,-2.17999 9.43005,-2.26996 0.65998,-0.02 1.32996,-0.01 2.01996,0.03 3.98004,3.25 6.52002,8.20001 6.52002,13.73004 z"
   class="st2" /><line
   style="fill:#ffffff;stroke:#262424;stroke-width:1.56823981;stroke-linecap:round;stroke-linejoin:round;stroke-miterlimit:10"
   id="line303"
   y2="322.83096"
   x2="259.67502"
   y1="310.29501"
   x1="261.83255"
   class="st6" />
<path
   class="st4"
   d="m 242.35699,143.65826 c -11.7908,41.97654 -11.38005,143.40607 -11.38005,143.40607"
   id="path312"
   inkscape:connector-curvature="0"
   style="fill:none;stroke:#262424;stroke-width:2;stroke-linecap:round;stroke-linejoin:round;stroke-miterlimit:10" /><path
   class="st0"
   d="m 337.39044,137.50662 c 0,0 -31.05816,-16.12228 -52.36838,-13.43313 -21.31021,2.68916 -41.05943,14.46711 -41.05943,14.46711 -13.43286,38.09633 -12.98569,148.52373 -12.98569,148.52373 0,0 23.83979,6.36389 88.27779,3.03064 l 0.9671,-16.43549 c 0.0743,-1.26202 1.13019,-2.24115 2.39423,-2.22006 v 0 c 1.30929,0.0219 2.35019,1.10596 2.31891,2.41504 l -0.39066,16.33164 c 9.73996,-0.002 21.78464,-1.12522 21.78464,-1.12522 2.17093,-68.96988 -8.93851,-151.55426 -8.93851,-151.55426 z"
   id="path310"
   inkscape:connector-curvature="0"
   style="fill:#332a50;fill-opacity:1" /><g
   id="g316">
			<path
   class="st2"
   d="m 308.64746,131.96696 c -3.17029,9.23642 -10.12295,13.404 -14.53644,15.16411 -1.64386,-6.29208 -5.45276,-14.07313 -5.45276,-14.07313 -3.18859,5.167 -4.58047,11.78663 -4.82055,14.77716 -11.76044,-2.29726 -13.91037,-13.27466 -13.91037,-13.27466 0.56888,-11.20574 9.48349,-20.28423 17.69616,-20.62453 18.15244,-0.75216 21.02396,18.03105 21.02396,18.03105 z"
   id="path314"
   inkscape:connector-curvature="0"
   style="fill:#ffffff;stroke:#262424;stroke-width:2;stroke-linecap:round;stroke-linejoin:round;stroke-miterlimit:10" />
		</g>
<path
   class="st0"
   d="m 367.39255,241.07504 c 0,1.23999 -0.03,2.39002 -0.09,3.45001 -0.07,1.32001 -0.16998,2.60999 -0.28998,3.84998 -0.72003,7.22998 -6.11999,13.12 -13.27002,14.44 -0.85998,0.16004 -1.71997,0.26001 -2.57,0.28003 -9.14997,0.34998 -17.21997,-6.56 -18.02997,-15.97003 l -0.82001,-9.5 c 0,0 -2.51001,-74.71002 -2.19,-83.83997 0.31,-9.12005 7.26001,-16.28002 7.26001,-16.28002 12.90997,6.35998 18.48999,20.55999 22.97998,45.79998 1.64001,9.22003 7.04004,40.73999 7.02002,57.77002 z"
   id="path321"
   inkscape:connector-curvature="0"
   style="fill:#332a50;fill-opacity:0.97979796" /><path
   class="st4"
   d="m 332.27255,236.26505 c -0.33001,-10.16004 -2.42999,-74.08002 -2.14001,-82.47999 0.2041,-6.00416 3.2861,-11.15879 5.36822,-13.98013"
   id="path323"
   inkscape:connector-curvature="0"
   style="fill:none;stroke:#262424;stroke-width:2;stroke-linecap:round;stroke-linejoin:round;stroke-miterlimit:10" /><path
   class="st5"
   d="m 367.39255,241.07504 c 0,1.23999 -0.03,2.39002 -0.09,3.45001 -0.07,1.32001 -0.16998,2.60999 -0.28998,3.84998 -0.72003,7.22998 -6.035,13.26001 -13.18503,14.58002 -0.85998,0.16003 -1.71997,0.26001 -2.57,0.28003 -1.5,-2.29004 -2.45499,-5.16004 -2.45499,-8.10004 0,-8.07001 6.54004,-14.60999 14.62,-14.60999 1.38,0 2.71002,0.19001 3.97003,0.54999 z"
   id="path325"
   inkscape:connector-curvature="0"
   style="fill:#ffffff" />
<path
   style="fill:#332a50;fill-opacity:1"
   inkscape:connector-curvature="0"
   id="path330"
   d="m 366.57703,250.88643 c -2.39811,7.34975 -8.66169,12.77659 -16.18442,14.55931 -0.0363,0.009 -0.0725,0.0172 -0.10877,0.0258 -0.24313,0.0605 -0.49606,0.11844 -0.73919,0.17892 -16.36612,4.01297 -62.78433,11.25348 -62.78433,11.25348 -11.95188,-7.18484 -7.17939,-21.059 -7.17939,-21.059 l 61.98749,-28.53628 c 13.10407,-6.32261 25.6203,2.53936 26.15958,15.50687 0.11508,2.55846 -0.23947,5.2773 -1.15097,8.07091 z"
   class="st0" /><path
   style="fill:none;stroke:#262424;stroke-width:2;stroke-linecap:round;stroke-linejoin:round;stroke-miterlimit:10"
   inkscape:connector-curvature="0"
   id="path332"
   d="m 338.43411,268.03049 c -20.25372,3.97241 -51.6738,8.87344 -51.6738,8.87344 -11.95187,-7.18484 -7.17938,-21.05901 -7.17938,-21.05901 l 61.98749,-28.53627"
   class="st4" /><path
   style="fill:#ffffff"
   inkscape:connector-curvature="0"
   id="path334"
   d="m 350.39261,265.44574 -0.10877,0.0258 c -2.99945,-3.51239 -4.27945,-8.38416 -3.02554,-13.18308 2.0401,-7.80787 10.02106,-12.48208 17.83853,-10.43944 0.91916,0.24016 1.80588,0.56484 2.63117,0.96651 0.11508,2.55846 -0.23947,5.2773 -1.15097,8.07091 -2.39811,7.34975 -8.66169,12.77659 -16.18442,14.55931 z"
   class="st5" /><path
   style="fill:none;stroke:#262424;stroke-width:2;stroke-linecap:round;stroke-linejoin:round;stroke-miterlimit:10"
   inkscape:connector-curvature="0"
   id="path336"
   d="m 367.728,242.81552 c 0.11508,2.55846 -0.23947,5.2773 -1.15097,8.07091 -2.39811,7.34975 -8.66169,12.77659 -16.18442,14.55931 l -0.10877,0.0258"
   class="st4" /><g
   id="g342">
			<path
   class="st2"
   d="m 282.54565,257.94742 c 0,0 7.88398,6.85812 5.79068,15.96908 l -11.87423,8.44373 -5.47858,8.38638 c -0.57483,0.87992 -1.63477,1.31146 -2.66074,1.08332 l -11.03353,-2.45362 c -1.49614,-0.3327 -2.35276,-1.91125 -1.81629,-3.34695 l 4.35928,-11.66651 -6.86911,9.94318 c -0.9096,1.31668 -2.79927,1.46518 -3.90336,0.30673 v 0 c -0.66492,-0.69763 -0.87448,-1.71304 -0.54007,-2.61691 l 5.71211,-15.43958 c 0.69556,-1.88003 2.31201,-3.26809 4.27564,-3.67141 z"
   id="path340"
   inkscape:connector-curvature="0"
   style="fill:#ffffff;stroke:#262424;stroke-width:2;stroke-linecap:round;stroke-linejoin:round;stroke-miterlimit:10" />
		</g><g
   id="g346">
			<circle
   class="st5"
   cx="293.73169"
   cy="270.87936"
   r="2.2275319"
   id="circle344"
   style="fill:#ffffff" />
		</g>
<g
   id="g357">
		<g
   id="g353">
			<path
   style="fill:#ffffff;stroke:#262424;stroke-width:2;stroke-linecap:round;stroke-linejoin:round;stroke-miterlimit:10"
   inkscape:connector-curvature="0"
   id="path351"
   d="m 296.5354,90.761185 0.54498,11.153795 0.93521,19.07953 c -6.06753,4.96053 -12.2608,5.90366 -18.61035,1.84459 l 0.21186,-8.91206 0.32113,-13.49809 z"
   class="st2" />
		</g>
		<path
   style="fill:#262424"
   inkscape:connector-curvature="0"
   id="path355"
   d="m 290.80377,94.099663 c 0.29184,5.035454 2.04682,22.124927 -11.30948,24.993187 l 0.44394,-18.6639 z"
   class="st7" />
	</g>
<g
   id="g380">
		<g
   id="g378">
			<g
   id="g362">
				<path
   style="fill:#ffffff"
   inkscape:connector-curvature="0"
   id="path360"
   d="m 262.87512,94.677528 c 1.90741,9.030702 5.73578,19.664402 16.5072,16.781382 12.80429,-3.42858 20.22898,-13.544512 19.01023,-25.949892 -1.21875,-12.40538 -7.68692,-18.776672 -22.374,-15.753578 -1.31079,0.269882 -2.53195,0.630943 -3.66586,1.070595 -8.2904,3.223579 -11.82104,10.764633 -10.39172,19.010154 0.25815,1.49025 0.54971,3.138283 0.91415,4.841339 z"
   class="st5" />
			</g>
			<g
   id="g366">
				<path
   style="fill:none;stroke:#262424;stroke-width:2;stroke-linecap:round;stroke-linejoin:round;stroke-miterlimit:10"
   inkscape:connector-curvature="0"
   id="path364"
   d="m 298.39255,85.509018 c -1.21875,-12.40538 -7.68692,-18.776672 -22.374,-15.753578 -1.31079,0.269882 -2.53195,0.630943 -3.66586,1.070595 -8.2904,3.223579 -11.82104,10.764633 -10.39172,19.010154 0.25815,1.49025 0.54971,3.138283 0.91415,4.841339 1.90741,9.030702 5.73578,19.664402 16.5072,16.781382 4.42572,-1.18507 8.20878,-3.16908 11.2143,-5.77042"
   class="st4" />
			</g>
			<path
   style="fill:#262424"
   inkscape:connector-curvature="0"
   id="path368"
   d="m 302.51944,87.419281 c 0,0 -1.56363,2.970032 -3.66303,5.547043 l -6.52401,1.117225 -1.90283,-4.497917 c 0,0 -4.18805,0.264748 -5.35386,-2.454964 0,0 -0.0302,-0.05881 -0.0758,-0.191185 -0.31964,-0.897537 -1.61722,-4.91542 -1.68521,-11.368202 0,0 -9.54102,5.505532 -14.93378,6.66996 -1.93857,0.420014 -4.31085,-0.08646 -6.55698,-0.910087 -4.49652,-1.648819 -8.97795,-8.20092 -8.74208,-12.984398 0.002,-0.03056 0.003,-0.06114 0.005,-0.09173 0.42805,-7.019196 4.53544,-2.632172 4.53544,-2.632172 0,0 0.42768,-5.66058 3.86041,-6.43515 3.44745,-0.774731 6.20151,4.113926 6.20151,4.113926 0,0 9.06943,-3.541413 20.26862,-3.049134 13.66028,0.600464 11.31637,10.218136 11.31637,10.218136 0,0 10.22678,2.107354 3.25037,16.948647 z"
   class="st7" />
			<g
   id="g372">
				<path
   style="fill:#ffffff"
   inkscape:connector-curvature="0"
   id="path370"
   d="m 293.68338,93.222404 c -1.12259,-5.116333 1.9968,-10.31784 7.10611,-11.472015 1.03983,-0.234894 2.14639,-0.302299 3.30127,-0.120598 6.59921,1.038307 6.52936,16.151573 -9.28503,16.707924 z"
   class="st5" />
			</g>
			<g
   id="g376">
				<path
   style="fill:none;stroke:#262424;stroke-width:2;stroke-linecap:round;stroke-linejoin:round;stroke-miterlimit:10"
   inkscape:connector-curvature="0"
   id="path374"
   d="m 293.68338,93.222404 c -1.12259,-5.116333 1.9968,-10.31784 7.10611,-11.472015 1.03983,-0.234894 2.14639,-0.302299 3.30127,-0.120598 6.59921,1.038307 6.52936,16.151573 -9.28503,16.707924"
   class="st4" />
			</g>
		</g>
	</g>
<g
   id="g387">
		<path
   style="fill:#ffffff;stroke:#262424;stroke-width:2;stroke-linecap:round;stroke-linejoin:round;stroke-miterlimit:10"
   inkscape:connector-curvature="0"
   id="path383"
   d="m 312.96133,282.91425 h -27.92822 c -2.64657,0 -4.79202,2.14547 -4.79202,4.79202 v 0 c 0,2.64657 2.14545,4.79202 4.79202,4.79202 h 27.92822 c 2.64655,0 4.79203,-2.14545 4.79203,-4.79202 v 0 c 0,-2.64655 -2.14548,-4.79202 -4.79203,-4.79202 z"
   class="st2" />
		<path
   style="fill:#ffffff;stroke:#262424;stroke-width:2;stroke-linecap:round;stroke-linejoin:round;stroke-miterlimit:10"
   inkscape:connector-curvature="0"
   id="path385"
   d="m 280.24109,292.49829 h -91.9604 c -2.76114,0 -5.35392,-2.23834 -5.79111,-4.99948 l -10.66379,-67.34755 c -0.43719,-2.76114 1.44673,-4.9995 4.20789,-4.9995 h 91.9604 c 2.76114,0 5.35391,2.23836 5.79111,4.9995 l 10.66378,67.34755 c 0.4372,2.76114 -1.44674,4.99948 -4.20788,4.99948 z"
   class="st2" />
	</g>
</svg>