<svg xmlns="http://www.w3.org/2000/svg" version="1.1" x="0" y="0" viewBox="0 0 600 600" style="enable-background:new 0 0 600 600" xml:space="preserve" id="svg390"><style type="text/css" id="style2">.st0{fill:#de9244}.st1{fill:#88c0c2}.st2,.st4{fill:#fff;stroke:#262424;stroke-width:2;stroke-linecap:round;stroke-linejoin:round;stroke-miterlimit:10}.st4{fill:none}.st5,.st6{fill:#fff}.st6{stroke:#262424;stroke-width:1.5682398;stroke-linecap:round;stroke-linejoin:round;stroke-miterlimit:10}.st7{fill:#262424}</style><path class="st0" d="M521.82 327.613a10.185 10.185 0 0 0-7.225 2.993 10.17 10.17 0 0 0-2.993 7.224 10.17 10.17 0 0 0-2.994-7.224 10.185 10.185 0 0 0-7.224-2.993c2.825 0 5.378-1.147 7.224-2.994a10.17 10.17 0 0 0 2.994-7.224 10.17 10.17 0 0 0 2.993 7.224 10.185 10.185 0 0 0 7.224 2.994z" id="path4" style="fill:#332a50;fill-opacity:.94117647"/><path class="st1" d="M126.748 225.22a10.08 10.08 0 0 0-7.15 2.964 10.066 10.066 0 0 0-2.963 7.15c0-2.79-1.13-5.322-2.963-7.15a10.08 10.08 0 0 0-7.15-2.963 10.08 10.08 0 0 0 7.15-2.963 10.067 10.067 0 0 0 2.963-7.15c0 2.789 1.129 5.322 2.963 7.15a10.08 10.08 0 0 0 7.15 2.963z" id="path6" style="fill:#d30c7b;fill-opacity:1"/><path class="st1" d="M391.31 288.462a6.445 6.445 0 0 0-4.573 1.894 6.436 6.436 0 0 0-1.894 4.572 6.436 6.436 0 0 0-1.894-4.572 6.445 6.445 0 0 0-4.572-1.894 6.445 6.445 0 0 0 4.572-1.894 6.436 6.436 0 0 0 1.894-4.572c0 1.784.722 3.403 1.894 4.572a6.445 6.445 0 0 0 4.572 1.894z" id="path8" style="fill:#88c0c2"/><path class="st0" d="M88.244 310.295a5.016 5.016 0 0 0-3.557 1.474 5.009 5.009 0 0 0-1.474 3.558 5.009 5.009 0 0 0-1.475-3.558 5.016 5.016 0 0 0-3.557-1.474 5.016 5.016 0 0 0 3.557-1.474 5.008 5.008 0 0 0 1.475-3.558c0 1.388.561 2.648 1.474 3.558a5.016 5.016 0 0 0 3.557 1.474z" id="path10" style="fill:#332a50;fill-opacity:.94117647"/><circle class="st1" cx="473.427" cy="286.255" r="2.207" id="circle12" style="fill:#88c0c2"/><circle class="st0" cx="511.602" cy="538.894" r="3.166" id="circle14" style="fill:#332a50;fill-opacity:.94117647"/><circle class="st1" cx="123.811" cy="400.575" r="4.789" id="circle16" style="fill:#d30c7b;fill-opacity:1"/><path style="fill:#fff;stroke:#262424;stroke-width:2;stroke-linecap:round;stroke-linejoin:round;stroke-miterlimit:10" id="path21" d="M490.075 333.383v212.162c0 6.133-4.977 11.11-11.11 11.11H172.903c-6.133 0-11.1-4.977-11.1-11.11V333.383c0-6.134 4.966-11.11 11.1-11.11h306.062c6.133 0 11.11 4.976 11.11 11.11z" class="st2"/><path style="fill:#332a50;stroke:#262424;stroke-width:2;stroke-linecap:round;stroke-linejoin:round;stroke-miterlimit:10;fill-opacity:.94117647" id="path23" d="M490.075 333.383v24.965H161.803v-24.965c0-6.134 4.967-11.11 11.1-11.11h306.062c6.133 0 11.11 4.976 11.11 11.11z"/><g id="g31"><circle style="fill:#fff;stroke:#262424;stroke-width:2;stroke-linecap:round;stroke-linejoin:round;stroke-miterlimit:10" id="circle25" r="6.809" cy="340.792" cx="409.678" class="st2"/><circle style="fill:#fff;stroke:#262424;stroke-width:2;stroke-linecap:round;stroke-linejoin:round;stroke-miterlimit:10" id="circle27" r="6.809" cy="340.792" cx="434.048" class="st2"/><circle style="fill:#fff;stroke:#262424;stroke-width:2;stroke-linecap:round;stroke-linejoin:round;stroke-miterlimit:10" id="circle29" r="6.809" cy="340.792" cx="458.418" class="st2"/></g><path style="fill:#d30c7b;fill-opacity:1" id="path35" d="M193.106 434.396h-7.201a3.09 3.09 0 0 1-3.09-3.089v-37.066a3.09 3.09 0 0 1 3.09-3.09h7.201a3.09 3.09 0 0 1 3.09 3.09v37.066a3.09 3.09 0 0 1-3.09 3.09z" class="st1"/><path style="fill:#d30c7b;fill-opacity:1" id="path37" d="M214.848 434.396h-7.201a3.09 3.09 0 0 1-3.09-3.089v-17.953a3.09 3.09 0 0 1 3.09-3.089h7.201a3.09 3.09 0 0 1 3.09 3.09v17.952a3.09 3.09 0 0 1-3.09 3.09z" class="st1"/><path style="fill:#d30c7b;fill-opacity:1" id="path39" d="M236.59 434.396h-7.202a3.09 3.09 0 0 1-3.089-3.089v-25.12a3.09 3.09 0 0 1 3.09-3.09h7.2a3.09 3.09 0 0 1 3.09 3.09v25.12a3.09 3.09 0 0 1-3.09 3.09z" class="st1"/><path style="fill:none;stroke:#262424;stroke-width:2;stroke-linecap:round;stroke-linejoin:round;stroke-miterlimit:10" id="path43" d="M276.948 456.55v63.787a5.012 5.012 0 0 1-5.017 5.017H186.88a5.012 5.012 0 0 1-5.017-5.017V456.55a5.012 5.012 0 0 1 5.017-5.017h85.052a5.012 5.012 0 0 1 5.017 5.017z" class="st4"/><path style="fill:#332a50;fill-opacity:.94117647" id="path45" d="M276.948 456.55v8.838h-95.086v-8.838a5.012 5.012 0 0 1 5.017-5.017h85.052a5.012 5.012 0 0 1 5.017 5.017z" class="st0"/><g id="g53"><path style="fill:none;stroke:#262424;stroke-width:2;stroke-linecap:round;stroke-linejoin:round;stroke-miterlimit:10" id="line47" class="st4" d="M204.558 469.927v50.651"/><path style="fill:none;stroke:#262424;stroke-width:2;stroke-linecap:round;stroke-linejoin:round;stroke-miterlimit:10" id="line49" class="st4" d="M229.405 469.927v50.651"/><path style="fill:none;stroke:#262424;stroke-width:2;stroke-linecap:round;stroke-linejoin:round;stroke-miterlimit:10" id="line51" class="st4" d="M254.253 469.927v50.651"/></g><g id="g59"><path style="fill:none;stroke:#262424;stroke-width:2;stroke-linecap:round;stroke-linejoin:round;stroke-miterlimit:10" id="line55" class="st4" d="M269.783 482.829h-80.755"/><path style="fill:none;stroke:#262424;stroke-width:2;stroke-linecap:round;stroke-linejoin:round;stroke-miterlimit:10" id="line57" class="st4" d="M269.783 507.676h-80.755"/></g><path style="fill:#332a50;fill-opacity:.94117647" id="path63" d="M324.845 509.14h-33.371a3.832 3.832 0 0 1-3.832-3.832v-.042a3.832 3.832 0 0 1 3.832-3.831h33.371a3.832 3.832 0 0 1 3.832 3.831v.042a3.832 3.832 0 0 1-3.832 3.832z" class="st0"/><path style="fill:#332a50;fill-opacity:.94117647" id="path65" d="M312.481 525.354h-21.007a3.832 3.832 0 0 1-3.832-3.832v-.042a3.832 3.832 0 0 1 3.832-3.831h21.007a3.832 3.832 0 0 1 3.832 3.831v.042a3.832 3.832 0 0 1-3.832 3.832z" class="st0"/><path class="st2" d="M413.777 430.268h52.019c2.263 0 4.092 2.242 4.092 5.017v85.052c0 2.775-1.829 5.017-4.092 5.017h-52.02c-2.262 0-4.09-2.242-4.09-5.017v-85.052c0-2.775 1.828-5.017 4.091-5.017z" id="path69" style="fill:#fff;stroke:#262424;stroke-width:2;stroke-linecap:round;stroke-linejoin:round;stroke-miterlimit:10"/><path class="st2" id="line71" style="fill:#fff;stroke:#262424;stroke-width:2;stroke-linecap:round;stroke-linejoin:round;stroke-miterlimit:10" d="M418.642 501.435h42.289"/><path class="st2" id="line73" style="fill:#fff;stroke:#262424;stroke-width:2;stroke-linecap:round;stroke-linejoin:round;stroke-miterlimit:10" d="M418.642 510.543h42.289"/><path style="fill:#d30c7b;fill-opacity:1" id="path75" d="M439.786 443.207c-13.355 0-24.189 10.835-24.189 24.19 0 13.363 10.834 24.189 24.19 24.189 13.355 0 24.189-10.826 24.189-24.19 0-13.355-10.834-24.189-24.19-24.189zm0 35.41c-6.194 0-11.22-5.026-11.22-11.22 0-6.195 5.026-11.221 11.22-11.221 6.195 0 11.221 5.026 11.221 11.22 0 6.195-5.026 11.222-11.22 11.222z" class="st1"/><path style="fill:#332a50;fill-opacity:.94117647" id="path77" d="M463.976 467.397h-12.969c0-6.195-5.026-11.221-11.22-11.221v-12.969c13.355 0 24.189 10.835 24.189 24.19z" class="st0"/><path class="st1" d="m470.015 401.16-.13.05v18.018c0 2.775-1.83 5.017-4.092 5.017H413.78c-2.262 0-4.092-2.242-4.092-5.017v-19.074l2.725-1.015 20.953-7.752 15.102 5.59 7.2-2.664 14.217 5.268z" id="path83" style="fill:#d30c7b;fill-opacity:1"/><path class="st0" d="M469.885 401.21v18.018c0 2.775-1.83 5.017-4.092 5.017H413.78c-2.262 0-4.092-2.242-4.092-5.017v-21.095l2.725 1.006 12.648 4.685 7.2-2.664 18.872 6.988z" id="path85" style="fill:#332a50;fill-opacity:.94117647"/><path class="st4" d="M409.688 396.575V419.228c0 2.775 1.83 5.017 4.092 5.017h52.012c2.263 0 4.093-2.242 4.093-5.017V396.575" id="path87" style="fill:none;stroke:#262424;stroke-width:2;stroke-linecap:round;stroke-linejoin:round;stroke-miterlimit:10"/><circle class="st0" cx="433.366" cy="391.387" r="1.743" id="circle89" style="fill:#332a50;fill-opacity:.94117647"/><circle class="st0" cx="448.475" cy="396.98" r="1.743" id="circle91" style="fill:#332a50;fill-opacity:.94117647"/><circle class="st5" cx="425.071" cy="403.831" r="1.743" id="circle93" style="fill:#fff"/><circle class="st5" cx="432.261" cy="401.154" r="1.743" id="circle95" style="fill:#fff"/><circle class="st5" cx="451.137" cy="408.148" r="1.743" id="circle97" style="fill:#fff"/><circle class="st0" cx="455.687" cy="394.322" r="1.743" id="circle99" style="fill:#332a50;fill-opacity:.94117647"/><path style="fill:#d30c7b;fill-opacity:1" id="path107" d="m324.226 381.895-21.235 21.235a2.466 2.466 0 0 0-.217 3.239l50.858 66.741a2.466 2.466 0 0 1-.218 3.239l-4.347 4.347a2.466 2.466 0 0 0 0 3.488l14.319 14.32c.737.736.931 1.857.485 2.799l-2.552 5.388a2.466 2.466 0 0 0-.052 1.994l8.812 21.415a2.466 2.466 0 0 0 4.724-1.274l-1.886-13.74a2.466 2.466 0 0 1 1.321-2.532l7.727-3.946a2.466 2.466 0 0 0 1.243-2.895l-2.41-8.159a2.466 2.466 0 0 1 .622-2.442l11.186-11.186a2.466 2.466 0 0 0 .42-2.927l-9.432-17.255a2.466 2.466 0 0 0-2.164-1.283h-26.442a2.466 2.466 0 0 1-2.038-1.078l-6.538-9.599a2.466 2.466 0 0 1 .294-3.132l.467-.466c.759-.76 1.922-.94 2.876-.447l8.823 4.56a2.466 2.466 0 0 0 3.197-.844l11.297-17.321a2.466 2.466 0 0 0-.067-2.792l-13.403-18.545a2.466 2.466 0 0 0-2.681-.926l-8.127 2.343a2.466 2.466 0 0 1-2.427-.626l-2.482-2.482a2.466 2.466 0 0 1 .519-3.884l8.643-4.948a2.466 2.466 0 0 0 1.016-3.169l-5.364-11.698a2.466 2.466 0 0 0-1.687-1.375l-20.781-4.796a2.466 2.466 0 0 0-2.299.66z" class="st1"/><path class="st1" d="M130.28 494.09c-8.224 13.043-16.576 21.22-16.576 21.22-8.097-20.27-6.965-38.293-2.157-53.09 3.192-9.839 7.998-18.242 12.81-24.933 8.214-11.441 16.399-17.886 16.399-17.886 9.648 21.986 5.012 43.735-2.954 60.94a120.644 120.644 0 0 1-7.523 13.748z" id="path114" style="fill:#d30c7b;fill-opacity:1"/><path class="st5" d="M130.28 494.09c-4.187-21.28-8.184-13.118-14.365-21.977-2.194-3.156-3.546-6.661-4.368-9.893 3.192-9.839 7.998-18.242 12.81-24.933-.499 4.003-.894 12.22 2.649 19.47 4.721 9.655 9.889 2.351 10.796 23.583a120.644 120.644 0 0 1-7.523 13.75z" id="path116" style="fill:#fff"/><path class="st4" d="M138.552 426.821s-13.064 54.983-23.607 82.44" id="path118" style="fill:none;stroke:#262424;stroke-width:2;stroke-linecap:round;stroke-linejoin:round;stroke-miterlimit:10"/><path class="st0" d="M117.226 484.868c-1.243 18.212-5.354 31.422-5.354 31.422-19.823-16.575-28.765-35.991-32.064-54.111-2.2-12.046-1.912-23.502-.655-33.177 2.134-16.536 7.044-27.848 7.044-27.848 22.401 17.492 29.786 42.76 31.147 65.162.393 6.52.288 12.791-.118 18.552z" id="path122" style="fill:#332a50;fill-opacity:.94117647"/><path class="st5" d="M117.226 484.868c-16.313-19.822-15.894-9.073-27.31-14.834-4.06-2.055-7.437-4.949-10.108-7.855-2.2-12.046-1.912-23.502-.655-33.177 1.728 4.451 5.931 13.237 13.695 18.801 10.343 7.41 11.626-3.103 24.496 18.513.393 6.52.288 12.791-.118 18.552z" id="path124" style="fill:#fff"/><path class="st4" d="M88.067 410.124s17.267 64.633 21.7 99.167" id="path126" style="fill:none;stroke:#262424;stroke-width:2;stroke-linecap:round;stroke-linejoin:round;stroke-miterlimit:10"/><path class="st2" d="M145.215 508.12c0 34.068-12.608 48.535-12.608 48.535H91.548S78.94 542.188 78.94 508.121z" id="path132" style="fill:#fff;stroke:#262424;stroke-width:2;stroke-linecap:round;stroke-linejoin:round;stroke-miterlimit:10"/><path style="fill:none;stroke:#262424;stroke-width:2;stroke-linecap:round;stroke-linejoin:round;stroke-miterlimit:10" id="polyline137" class="st4" d="m171.135 131.35-10.277 10.277h-12.059"/><circle style="fill:#332a50;fill-opacity:.94117647" id="circle139" r="3.832" cy="141.627" cx="144.967" class="st0"/><path class="st1" d="M91.041 136.652h31.931a4.975 4.975 0 1 1 0 9.95h-31.93a4.975 4.975 0 0 1 0-9.95z" id="path143" style="fill:#d30c7b;fill-opacity:1"/><path style="fill:#fff;stroke:#262424;stroke-width:2;stroke-linecap:round;stroke-linejoin:round;stroke-miterlimit:10" id="path148" d="M406.907 60.249c-49.333 0-89.353 40.02-89.353 89.353 0 49.361 40.02 89.353 89.353 89.353 49.332 0 89.353-39.992 89.353-89.353 0-49.333-40.02-89.353-89.353-89.353zm0 130.802c-22.881 0-41.449-18.568-41.449-41.449 0-22.881 18.568-41.449 41.449-41.449 22.88 0 41.448 18.568 41.448 41.449 0 22.881-18.567 41.449-41.448 41.449z" class="st2"/><path style="fill:#332a50;fill-opacity:.94117647" id="path150" d="M451.254 146.602c-1.481-22.123-19.224-39.867-41.347-41.349V63.3c45.239 1.55 81.751 38.063 83.301 83.302z" class="st0"/><path class="st4" id="polyline154" style="fill:none;stroke:#262424;stroke-width:2;stroke-linecap:round;stroke-linejoin:round;stroke-miterlimit:10" d="m433.099 58.597 10.277-10.277h12.06"/><circle class="st0" cx="459.268" cy="48.32" r="3.832" id="circle156" style="fill:#332a50;fill-opacity:.94117647"/><path style="fill:#d30c7b;fill-opacity:1" id="path160" d="M513.193 53.295h-31.93a4.975 4.975 0 0 1 0-9.95h31.93a4.975 4.975 0 0 1 0 9.95z" class="st1"/><path class="st4" id="polyline164" style="fill:none;stroke:#262424;stroke-width:2;stroke-linecap:round;stroke-linejoin:round;stroke-miterlimit:10" d="m433.099 240.606 10.277 10.278h12.06"/><circle class="st0" cx="459.268" cy="250.884" r="3.832" id="circle166" style="fill:#332a50;fill-opacity:.94117647"/><path style="fill:#d30c7b;fill-opacity:1" id="path170" d="M513.193 245.908h-31.93a4.975 4.975 0 0 0 0 9.95h31.93a4.975 4.975 0 1 0 0-9.95z" class="st1"/><path style="fill:#332a50;fill-opacity:.94117647" id="polygon177" class="st0" d="m198.198 180.159-16.5 16.5-9.83-9.83-1-1-10.84 10.83-9.83-9.83 10.84-10.83 9.83-9.83 10.83 10.83 6.67-6.67-2.69-2.69h15.22v15.22z"/><path class="st1" d="m205.594 92.584-.13.05v17.92c0 2.76-1.82 4.99-4.07 4.99h-51.73c-2.25 0-4.07-2.23-4.07-4.99v-18.97l2.71-1.01 20.84-7.71 15.02 5.56 7.16-2.65 14.14 5.24z" id="path180" style="fill:#d30c7b;fill-opacity:1"/><path class="st0" d="M205.464 92.634v17.92c0 2.76-1.82 4.99-4.07 4.99h-51.73c-2.25 0-4.07-2.23-4.07-4.99v-20.98l2.71 1 12.58 4.66 7.16-2.65 18.77 6.95z" id="path182" style="fill:#332a50;fill-opacity:.94117647"/><path class="st4" d="M145.594 88.024V110.554c0 2.76 1.82 4.99 4.07 4.99h51.73c2.25 0 4.07-2.23 4.07-4.99v-22.53" id="path184" style="fill:none;stroke:#262424;stroke-width:2;stroke-linecap:round;stroke-linejoin:round;stroke-miterlimit:10"/><circle class="st0" cx="169.144" cy="82.864" r="1.733" id="circle186" style="fill:#332a50;fill-opacity:.94117647"/><circle class="st0" cx="184.171" cy="88.427" r="1.733" id="circle188" style="fill:#332a50;fill-opacity:.94117647"/><circle class="st5" cx="160.894" cy="95.241" r="1.733" id="circle190" style="fill:#fff"/><circle class="st5" cx="168.045" cy="92.579" r="1.733" id="circle192" style="fill:#fff"/><circle class="st5" cx="186.819" cy="99.534" r="1.733" id="circle194" style="fill:#fff"/><circle class="st0" cx="191.344" cy="85.784" r="1.733" id="circle196" style="fill:#332a50;fill-opacity:.94117647"/><path style="fill:#332a50;fill-opacity:1" id="path201" d="M242.361 245.042a61.3 61.3 0 0 1-1.114 3.266 88.93 88.93 0 0 1-1.425 3.589 16.317 16.317 0 0 1-16.972 9.827 16.156 16.156 0 0 1-2.536-.5c-8.839-2.393-14.481-11.395-12.449-20.619l2.17-15.384s16.494-63.8 20.02-72.228c3.654-8.732 13.908-14.452 13.908-14.452 10.426 9.92 12.161 23.835 8.922 49.265-1.184 9.29-5.427 40.986-10.524 57.236z" class="st0"/><path style="fill:#332a50;fill-opacity:.94117647" id="path203" d="M242.361 245.042a61.3 61.3 0 0 1-1.114 3.266 88.93 88.93 0 0 1-1.425 3.589c-2.843 6.686-9.714 10.857-16.932 9.986a16.155 16.155 0 0 1-2.537-.5c-.749-2.633-.805-5.657.072-8.463 2.406-7.703 10.598-11.996 18.31-9.587 1.318.412 2.53.99 3.626 1.709z" class="st5"/><path class="st1" d="m301.047 281.25-5.55 28.222a17.438 17.438 0 0 1-17.11 14.073H217.71c-11.25 0-20-9.786-18.744-20.967a18.863 18.863 0 0 1 16.713-16.648l45.447-2.204v-18.254h39.92z" id="path210" style="fill:#d30c7b;fill-opacity:1"/><g id="g216"><path class="st4" d="m288.453 273.449-4.77 26.029a9.362 9.362 0 0 1-9.208 7.674h-42.103" id="path212" style="fill:none;stroke:#262424;stroke-width:2;stroke-linecap:round;stroke-linejoin:round;stroke-miterlimit:10"/><path class="st6" d="m280.424 273.449-2.76 15.914a6.491 6.491 0 0 0 2.889 6.571l3.382 2.172" id="path214" style="fill:#fff;stroke:#262424;stroke-width:1.56823981;stroke-linecap:round;stroke-linejoin:round;stroke-miterlimit:10"/></g><g id="g225"><g id="g223"><path style="fill:#fff;stroke:#262424;stroke-width:2;stroke-linecap:round;stroke-linejoin:round;stroke-miterlimit:10" id="polygon221" class="st2" d="m266.354 416.085-13.096-34.984-15.519 8.69 16.001 33.161z"/></g></g><path class="st1" d="m261.032 493.64 5.268 3.623 44.768-65.111s-2.604-2.101-7.089-5.483c-8.818-6.66-23.784-17.639-41.52-28.053l-17.62 18.492s6.296 30.595 9.83 56.397c.367 2.678.633 5.418.762 8.196.25 5.333 2.177 9.586 5.6 11.94z" id="path227" style="fill:#d30c7b;fill-opacity:1"/><path class="st4" d="m261.032 493.64 5.268 3.623 44.768-65.111s-2.604-2.101-7.089-5.483c-8.818-6.66-23.784-17.639-41.52-28.053l-17.62 18.492s6.296 30.595 9.83 56.397c.367 2.678.633 5.418.762 8.196.25 5.333 2.177 9.586 5.6 11.94z" id="path229" style="fill:none;stroke:#262424;stroke-width:2;stroke-linecap:round;stroke-linejoin:round;stroke-miterlimit:10"/><path class="st4" id="line231" style="fill:none;stroke:#262424;stroke-width:2;stroke-linecap:round;stroke-linejoin:round;stroke-miterlimit:10" d="m257.312 411.965 8.944 42.22"/><g id="g235"><ellipse transform="rotate(-55.49 279.863 425.878)" class="st5" cx="279.863" cy="425.878" rx="7.016" ry="7.81" id="ellipse233" style="fill:#fff"/></g><g id="g239"><path class="st2" d="m261.032 493.64 5.268 3.623 44.768-65.111s-2.604-2.101-7.089-5.483l-23.633 34.373s-16.823-8.33-25.677 12.463c.367 2.678.633 5.418.762 8.196.25 5.333 2.177 9.586 5.6 11.94z" id="path237" style="fill:#fff;stroke:#262424;stroke-width:2;stroke-linecap:round;stroke-linejoin:round;stroke-miterlimit:10"/></g><path style="fill:#d30c7b;fill-opacity:1" id="path245" d="m235.459 301.548 23.493 85.45-23.954 10.28-40.92-73.982-1.376-2.485-.759-1.379c-3.771-6.832-4.218-15.112-.812-22.135a23.06 23.06 0 0 1 5.939-7.669 22.86 22.86 0 0 1 1.595-1.24 24.184 24.184 0 0 1 2.914-1.785c5.974-3.147 11.494-3.407 16.194-2.355 8.635 1.947 15.346 8.769 17.686 17.3z" class="st1"/><path style="fill:none;stroke:#262424;stroke-width:2;stroke-linecap:round;stroke-linejoin:round;stroke-miterlimit:10" id="polyline247" class="st4" d="M236.647 307.152h-13.576l23.8 70.454"/><path style="fill:none;stroke:#262424;stroke-width:2;stroke-linecap:round;stroke-linejoin:round;stroke-miterlimit:10" id="line249" class="st4" d="m234.422 390.293 20.584-8.201"/><path style="fill:#fff;stroke:#262424;stroke-width:2;stroke-linecap:round;stroke-linejoin:round;stroke-miterlimit:10" id="path251" d="M212.339 295.024c6.129 7.647 4.891 18.814-2.748 24.937-4.533 3.634-10.297 4.678-15.513 3.335l-1.376-2.485-.759-1.379c-3.771-6.832-4.218-15.112-.812-22.135a23.06 23.06 0 0 1 5.939-7.669 22.86 22.86 0 0 1 1.595-1.24 17.691 17.691 0 0 1 13.674 6.636z" class="st2"/><path class="st1" d="m343.818 281.25-5.55 28.222a17.438 17.438 0 0 1-17.11 14.073h-35.573c-11.25 0-20-9.786-18.745-20.967a18.862 18.862 0 0 1 16.714-16.648l20.343-2.204v-18.254h39.92z" id="path258" style="fill:#d30c7b;fill-opacity:1"/><g id="g264"><path class="st4" d="m331.224 273.449-4.77 26.029a9.362 9.362 0 0 1-9.208 7.674h-18.249" id="path260" style="fill:none;stroke:#262424;stroke-width:2;stroke-linecap:round;stroke-linejoin:round;stroke-miterlimit:10"/><path class="st4" d="m323.195 273.449-2.76 15.914a6.491 6.491 0 0 0 2.888 6.571l3.382 2.172" id="path262" style="fill:none;stroke:#262424;stroke-width:2;stroke-linecap:round;stroke-linejoin:round;stroke-miterlimit:10"/></g><g id="g273"><g id="g271"><path style="fill:#fff;stroke:#262424;stroke-width:2;stroke-linecap:round;stroke-linejoin:round;stroke-miterlimit:10" id="polygon269" class="st2" d="m260.198 427.9 11.661-35.488-17.545-2.925-8.254 35.882z"/></g></g><path class="st1" d="m207.54 485.088 1.846 6.121 75.653-22.808s-.718-3.268-2.102-8.711c-2.715-10.712-7.527-28.639-14.854-47.857l-25.313 3.41s-14.222 27.81-27.601 50.154a91.892 91.892 0 0 1-4.531 6.872c-3.141 4.317-4.297 8.84-3.098 12.82z" id="path275" style="fill:#d30c7b;fill-opacity:1"/><path class="st4" d="m207.54 485.088 1.846 6.121 75.653-22.808s-.718-3.268-2.102-8.711c-2.715-10.712-7.527-28.639-14.854-47.857l-25.313 3.41s-14.222 27.81-27.601 50.154a91.892 91.892 0 0 1-4.531 6.872c-3.141 4.317-4.297 8.84-3.098 12.82z" id="path277" style="fill:none;stroke:#262424;stroke-width:2;stroke-linecap:round;stroke-linejoin:round;stroke-miterlimit:10"/><path class="st4" id="line279" style="fill:none;stroke:#262424;stroke-width:2;stroke-linecap:round;stroke-linejoin:round;stroke-miterlimit:10" d="m255.719 419.03-19.426 38.538"/><g id="g283"><ellipse transform="rotate(-16.777 264.614 443.99)" class="st5" cx="264.614" cy="443.99" rx="7.016" ry="7.81" id="ellipse281" style="fill:#fff"/></g><g id="g287"><path class="st2" d="m207.54 485.088 1.846 6.121 75.653-22.808s-.718-3.268-2.102-8.711L243 471.73s-7.918-17.02-27.83-6.333a91.892 91.892 0 0 1-4.531 6.872c-3.141 4.317-4.297 8.84-3.098 12.82z" id="path285" style="fill:#fff;stroke:#262424;stroke-width:2;stroke-linecap:round;stroke-linejoin:round;stroke-miterlimit:10"/></g><path style="fill:#d30c7b;fill-opacity:1" id="path293" d="m307.723 319.205-35.11 81.37-25.12-6.96 14.34-83.32.48-2.8.27-1.55c1.33-7.69 6.16-14.43 13.21-17.78a23.06 23.06 0 0 1 9.43-2.27c.66-.02 1.33-.01 2.02.03 1.1.06 2.23.2 3.39.43 6.63 1.28 11.1 4.53 14.11 8.29 5.52 6.92 6.49 16.44 2.98 24.56z" class="st1"/><path style="fill:none;stroke:#262424;stroke-width:2;stroke-linecap:round;stroke-linejoin:round;stroke-miterlimit:10" id="line295" class="st4" d="m248.052 390.367 3.995-23.214"/><path style="fill:none;stroke:#262424;stroke-width:2;stroke-linecap:round;stroke-linejoin:round;stroke-miterlimit:10" id="polyline297" class="st4" d="M309.675 307.152h-11.956l-28.898 79.193"/><path style="fill:none;stroke:#262424;stroke-width:2;stroke-linecap:round;stroke-linejoin:round;stroke-miterlimit:10" id="line299" class="st4" d="m252.867 387.531 20.317 5.524"/><path style="fill:#fff;stroke:#262424;stroke-width:2;stroke-linecap:round;stroke-linejoin:round;stroke-miterlimit:10" id="path301" d="M293.763 299.655c0 9.8-7.95 17.74-17.74 17.74-5.81 0-10.96-2.79-14.19-7.1l.48-2.8.27-1.55c1.33-7.69 6.16-14.43 13.21-17.78a23.06 23.06 0 0 1 9.43-2.27c.66-.02 1.33-.01 2.02.03 3.98 3.25 6.52 8.2 6.52 13.73z" class="st2"/><path style="fill:#fff;stroke:#262424;stroke-width:1.56823981;stroke-linecap:round;stroke-linejoin:round;stroke-miterlimit:10" id="line303" class="st6" d="m261.833 310.295-2.158 12.536"/><path class="st4" d="M242.357 143.658c-11.79 41.977-11.38 143.406-11.38 143.406" id="path312" style="fill:none;stroke:#262424;stroke-width:2;stroke-linecap:round;stroke-linejoin:round;stroke-miterlimit:10"/><path class="st0" d="M337.39 137.507s-31.058-16.123-52.368-13.434c-21.31 2.69-41.06 14.468-41.06 14.468-13.432 38.096-12.985 148.523-12.985 148.523s23.84 6.364 88.278 3.031l.967-16.436a2.359 2.359 0 0 1 4.713.195l-.39 16.332c9.74-.002 21.784-1.125 21.784-1.125 2.17-68.97-8.939-151.554-8.939-151.554z" id="path310" style="fill:#332a50;fill-opacity:1"/><g id="g316"><path class="st2" d="M308.647 131.967c-3.17 9.236-10.122 13.404-14.536 15.164-1.644-6.292-5.453-14.073-5.453-14.073-3.188 5.167-4.58 11.787-4.82 14.777-11.76-2.297-13.91-13.275-13.91-13.275.568-11.205 9.483-20.284 17.695-20.624 18.153-.752 21.024 18.031 21.024 18.031z" id="path314" style="fill:#fff;stroke:#262424;stroke-width:2;stroke-linecap:round;stroke-linejoin:round;stroke-miterlimit:10"/></g><path class="st0" d="M367.393 241.075c0 1.24-.03 2.39-.09 3.45-.07 1.32-.17 2.61-.29 3.85a16.317 16.317 0 0 1-13.27 14.44c-.86.16-1.72.26-2.57.28-9.15.35-17.22-6.56-18.03-15.97l-.82-9.5s-2.51-74.71-2.19-83.84c.31-9.12 7.26-16.28 7.26-16.28 12.91 6.36 18.49 20.56 22.98 45.8 1.64 9.22 7.04 40.74 7.02 57.77z" id="path321" style="fill:#332a50;fill-opacity:.97979796"/><path class="st4" d="M332.273 236.265c-.33-10.16-2.43-74.08-2.14-82.48.204-6.004 3.286-11.159 5.368-13.98" id="path323" style="fill:none;stroke:#262424;stroke-width:2;stroke-linecap:round;stroke-linejoin:round;stroke-miterlimit:10"/><path class="st5" d="M367.393 241.075c0 1.24-.03 2.39-.09 3.45-.07 1.32-.17 2.61-.29 3.85-.72 7.23-6.035 13.26-13.185 14.58-.86.16-1.72.26-2.57.28-1.5-2.29-2.455-5.16-2.455-8.1 0-8.07 6.54-14.61 14.62-14.61 1.38 0 2.71.19 3.97.55z" id="path325" style="fill:#fff"/><path style="fill:#332a50;fill-opacity:1" id="path330" d="M366.577 250.886c-2.398 7.35-8.662 12.777-16.184 14.56l-.11.026c-.242.06-.495.118-.738.178-16.366 4.013-62.785 11.254-62.785 11.254-11.952-7.185-7.18-21.06-7.18-21.06l61.988-28.535c13.104-6.323 25.62 2.539 26.16 15.507.115 2.558-.24 5.277-1.151 8.07z" class="st0"/><path style="fill:none;stroke:#262424;stroke-width:2;stroke-linecap:round;stroke-linejoin:round;stroke-miterlimit:10" id="path332" d="M338.434 268.03c-20.254 3.973-51.674 8.874-51.674 8.874-11.952-7.185-7.18-21.06-7.18-21.06l61.988-28.535" class="st4"/><path style="fill:#fff" id="path334" d="m350.393 265.446-.11.026c-2.999-3.513-4.279-8.385-3.025-13.184 2.04-7.807 10.021-12.482 17.839-10.439.919.24 1.806.565 2.631.967.115 2.558-.24 5.277-1.151 8.07-2.398 7.35-8.662 12.777-16.184 14.56z" class="st5"/><path style="fill:none;stroke:#262424;stroke-width:2;stroke-linecap:round;stroke-linejoin:round;stroke-miterlimit:10" id="path336" d="M367.728 242.816c.115 2.558-.24 5.277-1.151 8.07-2.398 7.35-8.662 12.777-16.184 14.56l-.11.026" class="st4"/><g id="g342"><path class="st2" d="M282.546 257.947s7.884 6.859 5.79 15.97l-11.874 8.443-5.478 8.387a2.524 2.524 0 0 1-2.661 1.083l-11.034-2.454a2.524 2.524 0 0 1-1.816-3.347l4.36-11.666-6.87 9.943a2.524 2.524 0 0 1-3.903.307v0a2.524 2.524 0 0 1-.54-2.617l5.712-15.44a5.804 5.804 0 0 1 4.275-3.671z" id="path340" style="fill:#fff;stroke:#262424;stroke-width:2;stroke-linecap:round;stroke-linejoin:round;stroke-miterlimit:10"/></g><g id="g346"><circle class="st5" cx="293.732" cy="270.879" r="2.228" id="circle344" style="fill:#fff"/></g><g id="g357"><g id="g353"><path style="fill:#fff;stroke:#262424;stroke-width:2;stroke-linecap:round;stroke-linejoin:round;stroke-miterlimit:10" id="path351" d="m296.535 90.761.545 11.154.936 19.08c-6.068 4.96-12.261 5.903-18.61 1.844l.211-8.912.321-13.498z" class="st2"/></g><path style="fill:#262424" id="path355" d="M290.804 94.1c.292 5.035 2.047 22.125-11.31 24.993l.444-18.664z" class="st7"/></g><g id="g380"><g id="g378"><g id="g362"><path style="fill:#fff" id="path360" d="M262.875 94.678c1.908 9.03 5.736 19.664 16.507 16.78 12.805-3.428 20.23-13.544 19.01-25.949-1.218-12.405-7.686-18.777-22.373-15.754a22.9 22.9 0 0 0-3.666 1.071c-8.29 3.224-11.821 10.765-10.392 19.01.258 1.49.55 3.138.914 4.842z" class="st5"/></g><g id="g366"><path style="fill:none;stroke:#262424;stroke-width:2;stroke-linecap:round;stroke-linejoin:round;stroke-miterlimit:10" id="path364" d="M298.393 85.509c-1.22-12.405-7.687-18.777-22.374-15.754a22.9 22.9 0 0 0-3.666 1.071c-8.29 3.224-11.821 10.765-10.392 19.01.258 1.49.55 3.138.914 4.842 1.908 9.03 5.736 19.664 16.507 16.78 4.426-1.184 8.21-3.168 11.215-5.77" class="st4"/></g><path style="fill:#262424" id="path368" d="M302.52 87.42s-1.564 2.97-3.664 5.546l-6.524 1.118-1.902-4.498s-4.188.264-5.354-2.455c0 0-.03-.06-.076-.192-.32-.897-1.617-4.915-1.685-11.368 0 0-9.541 5.506-14.934 6.67-1.939.42-4.31-.086-6.557-.91-4.497-1.649-8.978-8.2-8.742-12.984l.005-.092c.428-7.02 4.535-2.632 4.535-2.632s.428-5.66 3.86-6.435c3.448-.775 6.202 4.114 6.202 4.114s9.07-3.542 20.269-3.05c13.66.601 11.316 10.219 11.316 10.219s10.227 2.107 3.25 16.948z" class="st7"/><g id="g372"><path style="fill:#fff" id="path370" d="M293.683 93.222c-1.122-5.116 1.997-10.317 7.106-11.472a8.725 8.725 0 0 1 3.302-.12c6.599 1.038 6.53 16.151-9.285 16.708z" class="st5"/></g><g id="g376"><path style="fill:none;stroke:#262424;stroke-width:2;stroke-linecap:round;stroke-linejoin:round;stroke-miterlimit:10" id="path374" d="M293.683 93.222c-1.122-5.116 1.997-10.317 7.106-11.472a8.725 8.725 0 0 1 3.302-.12c6.599 1.038 6.53 16.151-9.285 16.708" class="st4"/></g></g></g><g id="g387"><path style="fill:#fff;stroke:#262424;stroke-width:2;stroke-linecap:round;stroke-linejoin:round;stroke-miterlimit:10" id="path383" d="M312.961 282.914h-27.928a4.792 4.792 0 0 0-4.792 4.792v0a4.792 4.792 0 0 0 4.792 4.792h27.928a4.792 4.792 0 0 0 4.792-4.792v0a4.792 4.792 0 0 0-4.792-4.792z" class="st2"/><path style="fill:#fff;stroke:#262424;stroke-width:2;stroke-linecap:round;stroke-linejoin:round;stroke-miterlimit:10" id="path385" d="M280.241 292.498h-91.96c-2.761 0-5.354-2.238-5.791-5l-10.664-67.347c-.437-2.76 1.447-5 4.208-5h91.96c2.761 0 5.354 2.24 5.791 5L284.45 287.5c.437 2.76-1.447 5-4.208 5z" class="st2"/></g></svg>